<?xml version="1.0" encoding="UTF-8"?>
<svg version="1.1" xmlns="http://www.w3.org/2000/svg" width="477" height="305">
<path d="M0 0 C157.41 0 314.82 0 477 0 C477 100.65 477 201.3 477 305 C319.59 305 162.18 305 0 305 C0 204.35 0 103.7 0 0 Z " fill="#FDFDFC" transform="translate(0,0)"/>
<path d="M0 0 C3.90285767 1.58667578 6.33520982 4.13350481 9.25 7.125 C10.14203125 8.03507812 11.0340625 8.94515625 11.953125 9.8828125 C12.96632813 10.93082031 12.96632813 10.93082031 14 12 C12.42369323 15.87321093 9.92252331 18.24735163 6.9375 21.125 C3.53546517 24.24105765 3.53546517 24.24105765 1 28 C0.34 28 -0.32 28 -1 28 C-1.33 28.99 -1.66 29.98 -2 31 C-3.4375 32.6875 -3.4375 32.6875 -5 34 C-5.66 34 -6.32 34 -7 34 C-7.33 34.99 -7.66 35.98 -8 37 C-8.66 37 -9.32 37 -10 37 C-10.268125 37.639375 -10.53625 38.27875 -10.8125 38.9375 C-12 41 -12 41 -15 42 C-15.33 42.99 -15.66 43.98 -16 45 C-16.66 45 -17.32 45 -18 45 C-18.268125 45.639375 -18.53625 46.27875 -18.8125 46.9375 C-20 49 -20 49 -23 50 C-23.68486725 51.32407669 -24.34870203 52.65909241 -25 54 C-27 56.25 -27 56.25 -29 58 C-29.66 58 -30.32 58 -31 58 C-31.2371875 58.56203125 -31.474375 59.1240625 -31.71875 59.703125 C-33.28947697 62.51894042 -35.21471464 64.47955416 -37.5 66.75 C-38.2940625 67.54921875 -39.088125 68.3484375 -39.90625 69.171875 C-42 71 -42 71 -44 71 C-44.37125 71.86625 -44.37125 71.86625 -44.75 72.75 C-46.16817251 75.30271053 -47.91045129 76.97785609 -50 79 C-50.33 79.66 -50.66 80.32 -51 81 C-50.44820068 81.16798096 -49.89640137 81.33596191 -49.32788086 81.5090332 C-43.77628409 83.26883577 -38.69142479 85.43750815 -33.5625 88.1875 C-32.45563843 88.78014648 -32.45563843 88.78014648 -31.32641602 89.38476562 C-14.70956029 98.50188168 -3.09430048 111.65159498 2.23828125 129.921875 C5.4109251 142.74261016 5.18623069 156.46068862 1 169 C0.67515625 170.04994141 0.67515625 170.04994141 0.34375 171.12109375 C-5.74550611 189.13514309 -20.20634627 204.33950466 -37 213 C-42.54962494 215.32387219 -48.25916565 217.21066773 -54 219 C-55.07765625 219.34417969 -56.1553125 219.68835938 -57.265625 220.04296875 C-68.20701594 222.8469863 -78.89479218 223.36979774 -90.125 223.3125 C-90.90201263 223.31001251 -91.67902527 223.30752502 -92.47958374 223.30496216 C-103.87966191 223.24846438 -114.93522413 223.00659753 -126 220 C-126.85803223 219.76893555 -127.71606445 219.53787109 -128.60009766 219.29980469 C-149.94471463 213.36970841 -168.73386685 204.28328522 -185 189 C-179.95125852 179.49769388 -174.48865962 170.25262185 -169 161 C-167.55031908 161.47646067 -166.10120866 161.95465742 -164.65234375 162.43359375 C-163.84531006 162.69970459 -163.03827637 162.96581543 -162.20678711 163.23999023 C-160 164 -160 164 -157.5625 165.0625 C-155.13459618 166.05115001 -155.13459618 166.05115001 -153.00390625 166.28515625 C-147.15040451 167.12137078 -142.67147585 169.03139151 -137.5625 171.875 C-117.39336239 183.05612624 -91.53269244 187.34769798 -68.9375 181.3125 C-57.51485549 177.2976101 -49.84090456 171.73827838 -44 161 C-41.80742201 154.42226602 -41.66811048 145.74630914 -44.75 139.4375 C-45.46621142 138.27024886 -46.21337634 137.12100724 -47 136 C-47.556875 135.13375 -48.11375 134.2675 -48.6875 133.375 C-54.75168043 127.14692281 -61.90803368 124.02178396 -69.98828125 121.09375 C-72.32218715 120.24615771 -74.55821958 119.34420729 -76.8125 118.3125 C-80.51126926 116.78947736 -84.10308115 115.88877096 -88 115 C-88.20979492 115.53069092 -88.41958984 116.06138184 -88.63574219 116.6081543 C-90.54475331 119.95507305 -93.15048313 122.53607096 -95.828125 125.26953125 C-96.41358093 125.868759 -96.99903687 126.46798676 -97.60223389 127.08537292 C-98.84679039 128.35318475 -100.09436835 129.61803659 -101.34472656 130.88012695 C-103.21803971 132.78008513 -105.06577667 134.70268661 -106.9140625 136.62695312 C-115.23700117 145.12900952 -125.50388559 154.48115258 -138.07421875 155.16796875 C-154.75162861 155.25811691 -164.25077442 149.92050869 -176.23828125 138.78125 C-179.03271714 135.96705148 -181.49600829 133.07133565 -184 130 C-192.4627343 120.86140123 -192.4627343 120.86140123 -203.6875 116.5 C-210.4698829 116.7623021 -214.96373603 120.91981046 -219.53515625 125.58984375 C-220.96059091 127.13054266 -222.36697457 128.68605146 -223.7644043 130.25219727 C-228.82906852 135.91307645 -234.17819991 141.26909152 -239.5625 146.625 C-240.44397705 147.50236816 -241.3254541 148.37973633 -242.23364258 149.28369141 C-243.82607865 150.86671756 -245.4193886 152.44886556 -247.01391602 154.02978516 C-247.99702759 155.0050415 -247.99702759 155.0050415 -249 156 C-249.79056793 156.622519 -249.79056793 156.622519 -250.59710693 157.25761414 C-252.61882423 159.76857646 -252.39886609 161.65182485 -252.43237305 164.84838867 C-252.45216721 166.0494072 -252.47196136 167.25042572 -252.49235535 168.48783875 C-252.49874527 169.78478165 -252.50513519 171.08172455 -252.51171875 172.41796875 C-252.52856459 173.75891266 -252.54671471 175.09984076 -252.56611633 176.44075012 C-252.61363358 179.96702131 -252.64343133 183.49322844 -252.66955566 187.01971436 C-252.6993528 190.61939051 -252.7457243 194.21885032 -252.79101562 197.81835938 C-252.87863591 204.87892415 -252.93856284 211.93896411 -253 219 C-268.18 219 -283.36 219 -299 219 C-301.15289402 181.64095667 -301.15289402 181.64095667 -295.28515625 173.73046875 C-291.83286207 170.06707508 -288.02849757 166.99133874 -283.78759766 164.28222656 C-281.71508382 162.95482133 -281.71508382 162.95482133 -280 160 C-279.34 160 -278.68 160 -278 160 C-278 159.34 -278 158.68 -278 158 C-277.34 158 -276.68 158 -276 158 C-275.73676437 157.41112 -275.47352875 156.82223999 -275.20231628 156.21551514 C-273.94533545 153.89926932 -272.63338087 152.39808541 -270.76293945 150.55175781 C-270.10497879 149.8971759 -269.44701813 149.24259399 -268.76911926 148.56817627 C-268.05769272 147.87020935 -267.34626617 147.17224243 -266.61328125 146.453125 C-265.87804733 145.72309265 -265.14281342 144.9930603 -264.38529968 144.24090576 C-262.0323975 141.90580512 -259.67294328 139.57747553 -257.3125 137.25 C-254.97073528 134.93600133 -252.63049486 132.6205138 -250.29325867 130.30194092 C-248.84020192 128.86097625 -247.38448192 127.42269026 -245.9256134 125.98760986 C-241.97096438 122.07129638 -238.20921462 118.05515601 -234.5900116 113.82611084 C-226.84599412 104.9321919 -219.02793329 98.05461095 -206.95703125 96.64453125 C-197.94816106 96.24628968 -189.81871396 97.99418213 -182.75390625 103.8671875 C-181.4143066 105.20939845 -180.1064759 106.58405609 -178.83203125 107.98828125 C-177.12619676 109.86142573 -175.38121123 111.44343433 -173.4375 113.0625 C-168.42138967 117.34772001 -163.86722987 122.11227609 -159.27905273 126.84594727 C-158.65587158 127.48072998 -158.03269043 128.1155127 -157.390625 128.76953125 C-156.83407227 129.34292236 -156.27751953 129.91631348 -155.70410156 130.50708008 C-151.69219634 134.02180793 -148.07441566 134.39622132 -142.8125 134.5625 C-141.56082031 134.62566406 -140.30914062 134.68882812 -139.01953125 134.75390625 C-129.64215352 133.88675475 -121.5221 122.80251175 -115.3046875 116.53515625 C-114.30335555 115.53262803 -113.30164906 114.53047378 -112.29959106 113.52867126 C-110.21402245 111.44155027 -108.13181769 109.35115271 -106.05224609 107.25805664 C-103.40716768 104.59597953 -100.75554479 101.94054222 -98.10157585 99.28733158 C-96.03703822 97.22252005 -93.97513179 95.1550975 -91.91406631 93.0868206 C-90.93798128 92.10758873 -89.96132057 91.12893029 -88.98403549 90.15089607 C-84.03490295 85.19380763 -79.1754162 80.21808699 -74.65286255 74.8657074 C-72.53297188 72.47283105 -70.27398999 70.24672439 -68 68 C-67.15456131 67.15678192 -66.30912262 66.31356384 -65.43806458 65.4447937 C-64.53142563 64.54117096 -63.62478668 63.63754822 -62.69067383 62.70654297 C-57.57599972 57.60814707 -52.46382093 52.507257 -47.35309315 47.40490532 C-44.26771623 44.32476714 -41.18140158 41.2455803 -38.09301758 38.16845703 C-35.09599954 35.18229207 -32.10142051 32.19370127 -29.10852623 29.20340347 C-27.96950911 28.06623311 -26.82961261 26.92994285 -25.68882179 25.79455185 C-24.09726426 24.21023895 -22.50884915 22.62283875 -20.92114258 21.03466797 C-19.56476433 19.68162064 -19.56476433 19.68162064 -18.1809845 18.30123901 C-15.87974823 16.00351476 -15.87974823 16.00351476 -14 13 C-13.34 13 -12.68 13 -12 13 C-12 12.34 -12 11.68 -12 11 C-10.35648543 9.63823078 -8.68477344 8.31037934 -7 7 C-5.31384218 5.35305515 -3.64429829 3.68873879 -2 2 C-1.34 1.34 -0.68 0.68 0 0 Z " fill="#0F2842" transform="translate(420,60)"/>
<path d="M0 0 C70.29 0 140.58 0 213 0 C213 0.66 213 1.32 213 2 C211.62010742 2.93142749 210.23614348 3.85721053 208.8359375 4.7578125 C196.93262477 12.81154324 187.4930126 26.02794958 184 40 C164.2 40 144.4 40 124 40 C124.0928125 47.78722656 124.185625 55.57445313 124.28125 63.59765625 C124.32213022 68.5332565 124.36064131 73.4686478 124.390625 78.40429688 C124.43843569 86.23733915 124.49497244 94.06963281 124.60351562 101.90209961 C124.69048656 108.21748996 124.73828466 114.53207754 124.75901794 120.84802055 C124.77379153 123.2566536 124.80264193 125.66524306 124.84584045 128.07353401 C124.9039894 131.44980652 124.91190998 134.82276961 124.90820312 138.19946289 C124.95134644 139.69055824 124.95134644 139.69055824 124.99536133 141.21177673 C124.94735453 145.25740423 124.89084715 147.92321227 122.25242615 151.1123333 C120.11120605 152.97972107 120.11120605 152.97972107 117.98052216 154.5432806 C116.08109806 155.94035052 114.76992972 157.28633857 113.3125 159.125 C111.02345502 161.9708397 108.59741427 164.43352916 106 167 C104.9582651 168.04493927 103.9176321 169.09097787 102.87792969 170.13793945 C99.82590266 173.20765307 96.770919 176.27440476 93.71484375 179.34008789 C92.39690478 180.66310341 91.07985761 181.98700787 89.76367188 183.31176758 C87.86039118 185.22709734 85.95396962 187.13924998 84.046875 189.05078125 C83.45525574 189.6475618 82.86363647 190.24434235 82.25408936 190.85920715 C80.85491198 192.25857867 79.43009499 193.63224042 78 195 C77.67 195 77.34 195 77 195 C77 143.85 77 92.7 77 40 C51.59 40 26.18 40 0 40 C0 26.8 0 13.6 0 0 Z " fill="#112B44" transform="translate(43,29)"/>
<path d="M0 0 C-5.38640924 6.55377097 -11.35885127 12.47246635 -17.375 18.4375 C-18.40778595 19.46525983 -19.44033991 20.49325285 -20.47265625 21.52148438 C-22.97910287 24.01701598 -25.4886708 26.50938082 -28 29 C-31.68070132 27.55366546 -35.17108885 25.93719587 -38.6875 24.125 C-52.67769081 17.1299046 -65.70713615 13.755781 -81.375 13.6875 C-82.28991211 13.68202148 -83.20482422 13.67654297 -84.14746094 13.67089844 C-96.78272522 13.80399784 -108.80636626 16.85657252 -118.08203125 25.8203125 C-124.02791912 32.57755371 -124.78362874 39.54285189 -124.5 48.40625 C-123.45039405 55.95029278 -119.43954581 60.16443135 -113.5625 64.6875 C-102.55988458 71.80877426 -89.45644009 75.30071556 -77 79 C-77.99 79.495 -77.99 79.495 -79 80 C-79.495 81.485 -79.495 81.485 -80 83 C-80.66 83 -81.32 83 -82 83 C-82.21591797 83.53318848 -82.43183594 84.06637695 -82.65429688 84.61572266 C-85.6437342 89.91232007 -90.48558747 94.18094147 -94.70996094 98.52001953 C-95.90184549 99.75514485 -97.08103917 101.00264572 -98.24707031 102.26220703 C-107.93346781 112.71706238 -107.93346781 112.71706238 -112.92260742 113.40014648 C-115.55529216 112.89814022 -117.59991047 112.17656831 -120 111 C-120.75724365 110.70432129 -121.5144873 110.40864258 -122.29467773 110.10400391 C-124.60737538 109.19683321 -126.78343105 108.12226914 -129 107 C-130.02351563 106.49339844 -131.04703125 105.98679688 -132.1015625 105.46484375 C-147.44508705 97.5774816 -161.30079669 86.16360679 -167.2578125 69.4765625 C-170.40836628 59.02214998 -170.47969535 48.82703688 -170 38 C-169.979375 37.00871094 -169.95875 36.01742187 -169.9375 34.99609375 C-169.24785302 21.56952914 -160.60740158 7.1548045 -151 -2 C-139.16808166 -12.22948531 -125.20372554 -19.34049862 -110 -23 C-108.78828125 -23.29777344 -107.5765625 -23.59554688 -106.328125 -23.90234375 C-69.0332486 -32.17465488 -30.62127957 -21.80606272 0 0 Z " fill="#1B5073" transform="translate(411,51)"/>
<path d="M0 0 C3.90285767 1.58667578 6.33520982 4.13350481 9.25 7.125 C10.14203125 8.03507812 11.0340625 8.94515625 11.953125 9.8828125 C12.96632813 10.93082031 12.96632813 10.93082031 14 12 C12.42369323 15.87321093 9.92252331 18.24735163 6.9375 21.125 C3.53546517 24.24105765 3.53546517 24.24105765 1 28 C0.34 28 -0.32 28 -1 28 C-1.33 28.99 -1.66 29.98 -2 31 C-3.4375 32.6875 -3.4375 32.6875 -5 34 C-5.66 34 -6.32 34 -7 34 C-7.33 34.99 -7.66 35.98 -8 37 C-8.66 37 -9.32 37 -10 37 C-10.268125 37.639375 -10.53625 38.27875 -10.8125 38.9375 C-12 41 -12 41 -15 42 C-15.33 42.99 -15.66 43.98 -16 45 C-16.66 45 -17.32 45 -18 45 C-18.268125 45.639375 -18.53625 46.27875 -18.8125 46.9375 C-20 49 -20 49 -23 50 C-23.68486725 51.32407669 -24.34870203 52.65909241 -25 54 C-27 56.25 -27 56.25 -29 58 C-29.66 58 -30.32 58 -31 58 C-31.2371875 58.56203125 -31.474375 59.1240625 -31.71875 59.703125 C-33.28947697 62.51894042 -35.21471464 64.47955416 -37.5 66.75 C-38.2940625 67.54921875 -39.088125 68.3484375 -39.90625 69.171875 C-42 71 -42 71 -44 71 C-44.37125 71.86625 -44.37125 71.86625 -44.75 72.75 C-46.19097397 75.34375315 -47.84222053 76.96552222 -50 79 C-51.2065625 80.2065625 -51.2065625 80.2065625 -52.4375 81.4375 C-54.0504559 83.0504559 -55.6640524 84.66277168 -57.27856445 86.27416992 C-59.68627804 88.68577145 -62.08474472 91.10595418 -64.47929382 93.53059387 C-66.77443879 95.85257256 -69.07498312 98.16917159 -71.37573242 100.4855957 C-72.5907177 101.71073178 -73.80391565 102.93764279 -75.01538086 104.16625977 C-76.76993293 105.94494077 -78.53075222 107.71719771 -80.29296875 109.48828125 C-80.83567917 110.04131424 -81.37838959 110.59434723 -81.93754578 111.16413879 C-83.25427605 112.48126353 -84.62283 113.74620618 -86 115 C-86.66 115 -87.32 115 -88 115 C-88.20979492 115.53069092 -88.41958984 116.06138184 -88.63574219 116.6081543 C-90.54475331 119.95507305 -93.15048313 122.53607096 -95.828125 125.26953125 C-96.41358093 125.868759 -96.99903687 126.46798676 -97.60223389 127.08537292 C-98.84679039 128.35318475 -100.09436835 129.61803659 -101.34472656 130.88012695 C-103.21803971 132.78008513 -105.06577667 134.70268661 -106.9140625 136.62695312 C-115.23700117 145.12900952 -125.50388559 154.48115258 -138.07421875 155.16796875 C-154.75162861 155.25811691 -164.25077442 149.92050869 -176.23828125 138.78125 C-179.03271714 135.96705148 -181.49600829 133.07133565 -184 130 C-192.4627343 120.86140123 -192.4627343 120.86140123 -203.6875 116.5 C-210.4698829 116.7623021 -214.96373603 120.91981046 -219.53515625 125.58984375 C-220.96059091 127.13054266 -222.36697457 128.68605146 -223.7644043 130.25219727 C-228.82906852 135.91307645 -234.17819991 141.26909152 -239.5625 146.625 C-240.44397705 147.50236816 -241.3254541 148.37973633 -242.23364258 149.28369141 C-243.82607865 150.86671756 -245.4193886 152.44886556 -247.01391602 154.02978516 C-247.99702759 155.0050415 -247.99702759 155.0050415 -249 156 C-249.79056793 156.622519 -249.79056793 156.622519 -250.59710693 157.25761414 C-252.61882423 159.76857646 -252.39886609 161.65182485 -252.43237305 164.84838867 C-252.45216721 166.0494072 -252.47196136 167.25042572 -252.49235535 168.48783875 C-252.49874527 169.78478165 -252.50513519 171.08172455 -252.51171875 172.41796875 C-252.52856459 173.75891266 -252.54671471 175.09984076 -252.56611633 176.44075012 C-252.61363358 179.96702131 -252.64343133 183.49322844 -252.66955566 187.01971436 C-252.6993528 190.61939051 -252.7457243 194.21885032 -252.79101562 197.81835938 C-252.87863591 204.87892415 -252.93856284 211.93896411 -253 219 C-268.18 219 -283.36 219 -299 219 C-301.15289402 181.64095667 -301.15289402 181.64095667 -295.28515625 173.73046875 C-291.83286207 170.06707508 -288.02849757 166.99133874 -283.78759766 164.28222656 C-281.71508382 162.95482133 -281.71508382 162.95482133 -280 160 C-279.34 160 -278.68 160 -278 160 C-278 159.34 -278 158.68 -278 158 C-277.34 158 -276.68 158 -276 158 C-275.73676437 157.41112 -275.47352875 156.82223999 -275.20231628 156.21551514 C-273.94533545 153.89926932 -272.63338087 152.39808541 -270.76293945 150.55175781 C-270.10497879 149.8971759 -269.44701813 149.24259399 -268.76911926 148.56817627 C-268.05769272 147.87020935 -267.34626617 147.17224243 -266.61328125 146.453125 C-265.87804733 145.72309265 -265.14281342 144.9930603 -264.38529968 144.24090576 C-262.0323975 141.90580512 -259.67294328 139.57747553 -257.3125 137.25 C-254.97073528 134.93600133 -252.63049486 132.6205138 -250.29325867 130.30194092 C-248.84020192 128.86097625 -247.38448192 127.42269026 -245.9256134 125.98760986 C-241.97096438 122.07129638 -238.20921462 118.05515601 -234.5900116 113.82611084 C-226.84599412 104.9321919 -219.02793329 98.05461095 -206.95703125 96.64453125 C-197.94816106 96.24628968 -189.81871396 97.99418213 -182.75390625 103.8671875 C-181.4143066 105.20939845 -180.1064759 106.58405609 -178.83203125 107.98828125 C-177.12619676 109.86142573 -175.38121123 111.44343433 -173.4375 113.0625 C-168.42138967 117.34772001 -163.86722987 122.11227609 -159.27905273 126.84594727 C-158.65587158 127.48072998 -158.03269043 128.1155127 -157.390625 128.76953125 C-156.83407227 129.34292236 -156.27751953 129.91631348 -155.70410156 130.50708008 C-151.69219634 134.02180793 -148.07441566 134.39622132 -142.8125 134.5625 C-141.56082031 134.62566406 -140.30914062 134.68882812 -139.01953125 134.75390625 C-129.64215352 133.88675475 -121.5221 122.80251175 -115.3046875 116.53515625 C-114.30335555 115.53262803 -113.30164906 114.53047378 -112.29959106 113.52867126 C-110.21402245 111.44155027 -108.13181769 109.35115271 -106.05224609 107.25805664 C-103.40716768 104.59597953 -100.75554479 101.94054222 -98.10157585 99.28733158 C-96.03703822 97.22252005 -93.97513179 95.1550975 -91.91406631 93.0868206 C-90.93798128 92.10758873 -89.96132057 91.12893029 -88.98403549 90.15089607 C-84.03490295 85.19380763 -79.1754162 80.21808699 -74.65286255 74.8657074 C-72.53297188 72.47283105 -70.27398999 70.24672439 -68 68 C-67.15456131 67.15678192 -66.30912262 66.31356384 -65.43806458 65.4447937 C-64.53142563 64.54117096 -63.62478668 63.63754822 -62.69067383 62.70654297 C-57.57599972 57.60814707 -52.46382093 52.507257 -47.35309315 47.40490532 C-44.26771623 44.32476714 -41.18140158 41.2455803 -38.09301758 38.16845703 C-35.09599954 35.18229207 -32.10142051 32.19370127 -29.10852623 29.20340347 C-27.96950911 28.06623311 -26.82961261 26.92994285 -25.68882179 25.79455185 C-24.09726426 24.21023895 -22.50884915 22.62283875 -20.92114258 21.03466797 C-19.56476433 19.68162064 -19.56476433 19.68162064 -18.1809845 18.30123901 C-15.87974823 16.00351476 -15.87974823 16.00351476 -14 13 C-13.34 13 -12.68 13 -12 13 C-12 12.34 -12 11.68 -12 11 C-10.35648543 9.63823078 -8.68477344 8.31037934 -7 7 C-5.31384218 5.35305515 -3.64429829 3.68873879 -2 2 C-1.34 1.34 -0.68 0.68 0 0 Z " fill="#2B98C6" transform="translate(420,60)"/>
<path d="M0 0 C70.29 0 140.58 0 213 0 C213 0.66 213 1.32 213 2 C211.62010742 2.93142749 210.23614348 3.85721053 208.8359375 4.7578125 C196.93262477 12.81154324 187.4930126 26.02794958 184 40 C164.2 40 144.4 40 124 40 C124.0928125 47.78722656 124.185625 55.57445313 124.28125 63.59765625 C124.32213022 68.5332565 124.36064131 73.4686478 124.390625 78.40429688 C124.43843569 86.23733915 124.49497244 94.06963281 124.60351562 101.90209961 C124.69048656 108.21748996 124.73828466 114.53207754 124.75901794 120.84802055 C124.77379153 123.2566536 124.80264193 125.66524306 124.84584045 128.07353401 C124.9039894 131.44980652 124.91190998 134.82276961 124.90820312 138.19946289 C124.95134644 139.69055824 124.95134644 139.69055824 124.99536133 141.21177673 C124.94735453 145.25740423 124.89084715 147.92321227 122.25242615 151.1123333 C120.11120605 152.97972107 120.11120605 152.97972107 117.98052216 154.5432806 C116.08109806 155.94035052 114.76992972 157.28633857 113.3125 159.125 C109.65202916 163.67585563 105.61819352 167.43739357 101 171 C100 170 100 170 99.87695217 167.23761654 C99.87787396 165.99227422 99.87879576 164.7469319 99.87974548 163.46385193 C99.87889106 162.77287715 99.87803663 162.08190238 99.87715632 161.36998898 C99.87549953 159.0375678 99.8810261 156.70521737 99.88647461 154.37280273 C99.88675646 152.70765179 99.88659878 151.04250072 99.8860321 149.37734985 C99.88574406 144.84241894 99.89164184 140.30751424 99.89860606 135.77258945 C99.90483852 131.03866631 99.90544331 126.30474264 99.90663147 121.57081604 C99.90974511 112.599979 99.91795892 103.62915408 99.92798096 94.65832239 C99.94122605 82.54060753 99.94664174 70.42288938 99.95248318 58.30516911 C99.9618988 39.20343698 99.9818175 20.10173045 100 1 C67 1 34 1 0 1 C0 0.67 0 0.34 0 0 Z " fill="#1C5175" transform="translate(43,29)"/>
<path d="M0 0 C0.33 0 0.66 0 1 0 C1 19.14 1 38.28 1 58 C-13.85 58 -28.7 58 -44 58 C-44 45.13 -44 32.26 -44 19 C-43.34 19.33 -42.68 19.66 -42 20 C-42 27.92 -42 35.84 -42 44 C-39.091875 41.1846875 -39.091875 41.1846875 -36.125 38.3125 C-35.51672363 37.73153564 -34.90844727 37.15057129 -34.28173828 36.55200195 C-31.22228587 33.54008197 -29.36345731 31.15529847 -28 27 C-26.0625 24.6875 -26.0625 24.6875 -24 23 C-23.01 23 -22.02 23 -21 23 C-20.67 22.01 -20.34 21.02 -20 20 C-19.01 19.67 -18.02 19.34 -17 19 C-15.42159428 17.44294806 -15.42159428 17.44294806 -13.875 15.5 C-10.40367713 11.39078446 -6.67428232 7.63226789 -2.8203125 3.8828125 C-0.93616102 2.12246661 -0.93616102 2.12246661 0 0 Z " fill="#0E2843" transform="translate(165,221)"/>
<path d="M0 0 C70.29 0 140.58 0 213 0 C213 0.66 213 1.32 213 2 C210.05811576 2.84952342 207.47642344 3.11428815 204.41888428 3.08229065 C203.50654903 3.07527162 202.59421379 3.06825258 201.65423203 3.06102085 C200.65684132 3.04805438 199.65945061 3.03508791 198.63183594 3.02172852 C197.02533865 3.00704104 197.02533865 3.00704104 195.38638687 2.99205685 C191.91898209 2.95917711 188.45170103 2.91917426 184.984375 2.87890625 C182.84391739 2.85756251 180.70345508 2.83668542 178.56298828 2.81628418 C170.62526722 2.73734912 162.68763814 2.64937428 154.75 2.5625 C137.0125 2.376875 119.275 2.19125 101 2 C101 56.78 101 111.56 101 168 C101.66 168 102.32 168 103 168 C102.67 168.99 102.34 169.98 102 171 C101.34 170.67 100.68 170.34 100 170 C100 114.23 100 58.46 100 1 C67 1 34 1 0 1 C0 0.67 0 0.34 0 0 Z " fill="#3B5E77" transform="translate(43,29)"/>
<path d="M0 0 C0.74056641 0.00902344 1.48113281 0.01804688 2.24414062 0.02734375 C4.05873467 0.05075787 5.87316071 0.08662385 7.6875 0.125 C7.6875 0.455 7.6875 0.785 7.6875 1.125 C2.7375 1.455 -2.2125 1.785 -7.3125 2.125 C-7.3125 2.785 -7.3125 3.445 -7.3125 4.125 C-8.3025 4.455 -9.2925 4.785 -10.3125 5.125 C-11.09625 5.95 -11.88 6.775 -12.6875 7.625 C-15.4096156 10.21749105 -16.65179183 10.81122501 -20.3125 11.125 C-20.6425 13.435 -20.9725 15.745 -21.3125 18.125 C-21.993125 18.145625 -22.67375 18.16625 -23.375 18.1875 C-27.19250764 19.4058535 -28.90959141 21.53820606 -31.609375 24.4140625 C-33.63194943 26.44591479 -35.81545133 27.73775074 -38.3125 29.125 C-40.56333995 30.94298611 -41.36404178 32.2397685 -42.5703125 34.92578125 C-44.49589811 38.46177815 -46.50927168 40.39878592 -49.5625 43 C-52.96479393 45.98148389 -56.14639015 48.91543331 -59.0625 52.375 C-62.12508939 56.00582887 -65.39952243 59.39933752 -69.3125 62.125 C-69.9725 62.125 -70.6325 62.125 -71.3125 62.125 C-71.3125 62.785 -71.3125 63.445 -71.3125 64.125 C-71.9725 64.125 -72.6325 64.125 -73.3125 64.125 C-73.374375 64.681875 -73.43625 65.23875 -73.5 65.8125 C-74.6601371 69.11442866 -76.76809795 70.75407991 -79.3125 73.125 C-82.35179837 76.02293565 -84.54453256 78.33649833 -86.3125 82.125 C-86.828125 82.5375 -87.34375 82.95 -87.875 83.375 C-90.28189903 86.30513795 -90.07560582 89.39391671 -90.3125 93.125 C-89.9825 93.785 -89.6525 94.445 -89.3125 95.125 C-89.27227609 97.4579866 -89.26929753 99.79206666 -89.3125 102.125 C-88.19875 100.949375 -88.19875 100.949375 -87.0625 99.75 C-84.76816682 97.55995469 -83.19091142 96.29768614 -80.3125 95.125 C-80.3125 94.465 -80.3125 93.805 -80.3125 93.125 C-79.6525 93.125 -78.9925 93.125 -78.3125 93.125 C-79.92376295 97.17727809 -82.81271998 99.88721847 -85.875 102.875 C-86.38224609 103.38160156 -86.88949219 103.88820313 -87.41210938 104.41015625 C-91.17201188 108.125 -91.17201188 108.125 -92.3125 108.125 C-94.86388421 85.77094915 -94.86388421 85.77094915 -90.77441406 78.32421875 C-87.09958272 73.71828321 -82.7537259 69.97772596 -78.00830078 66.50585938 C-76.04869868 65.04882901 -76.04869868 65.04882901 -74.3125 62.125 C-73.6525 62.125 -72.9925 62.125 -72.3125 62.125 C-72.3125 61.465 -72.3125 60.805 -72.3125 60.125 C-71.6525 60.125 -70.9925 60.125 -70.3125 60.125 C-70.04926437 59.53612 -69.78602875 58.94723999 -69.51481628 58.34051514 C-68.25783545 56.02426932 -66.94588087 54.52308541 -65.07543945 52.67675781 C-64.41747879 52.0221759 -63.75951813 51.36759399 -63.08161926 50.69317627 C-62.01447945 49.64622589 -62.01447945 49.64622589 -60.92578125 48.578125 C-59.82293037 47.48307648 -59.82293037 47.48307648 -58.69779968 46.36590576 C-56.3448975 44.03080512 -53.98544328 41.70247553 -51.625 39.375 C-49.28323528 37.06100133 -46.94299486 34.7455138 -44.60575867 32.42694092 C-43.15270192 30.98597625 -41.69698192 29.54769026 -40.2381134 28.11260986 C-36.28346438 24.19629638 -32.52171462 20.18015601 -28.9025116 15.95111084 C-20.63877858 6.46030432 -13.09253223 -0.3042054 0 0 Z " fill="#23638F" transform="translate(214.3125,157.875)"/>
<path d="M0 0 C4.2742558 1.5830577 6.26531794 4.50568404 9 8 C6.03 7.67 3.06 7.34 0 7 C0 6.34 0 5.68 0 5 C-5.69236374 9.74228302 -5.69236374 9.74228302 -10.6875 15.1875 C-12.9221913 17.90536779 -15.23562818 19.84993303 -18 22 C-18.33 22.66 -18.66 23.32 -19 24 C-19.66 24 -20.32 24 -21 24 C-21.28875 24.5775 -21.5775 25.155 -21.875 25.75 C-22.24625 26.4925 -22.6175 27.235 -23 28 C-23.28875 28.70125 -23.5775 29.4025 -23.875 30.125 C-25.26136797 32.43561328 -26.62016998 32.84846934 -29 34 C-29.33 34.99 -29.66 35.98 -30 37 C-34.45714286 41 -34.45714286 41 -37 41 C-37.33 41.99 -37.66 42.98 -38 44 C-38.78375 44.61875 -39.5675 45.2375 -40.375 45.875 C-43.11844012 48.0958801 -44.23688 49.98800334 -46 53 C-47.62339805 54.70884005 -49.29319053 56.37446717 -51 58 C-52.2375 59.2684375 -52.2375 59.2684375 -53.5 60.5625 C-56 63 -56 63 -58.625 64.9375 C-61.19852065 66.90184354 -61.19852065 66.90184354 -62.5 70.0625 C-64.22164625 73.43405723 -65.60707202 74.43403324 -69 76 C-69.66 76 -70.32 76 -71 76 C-71.33 76.99 -71.66 77.98 -72 79 C-72.66 79.99 -73.32 80.98 -74 82 C-75.32 82 -76.64 82 -78 82 C-78.33 81.01 -78.66 80.02 -79 79 C-75.5 75.5 -75.5 75.5 -72 72 C-71.24095871 71.24063141 -70.48191742 70.48126282 -69.69987488 69.69888306 C-67.06305682 67.06303365 -64.42328099 64.4301891 -61.7824707 61.79833984 C-56.767583 56.79972729 -51.75518789 51.79862334 -46.74424458 46.79605675 C-43.71940167 43.77645273 -40.693621 40.75780036 -37.66577148 37.74121094 C-34.72710779 34.813401 -31.79088385 31.88316474 -28.85634422 28.95122147 C-27.73965587 27.83637969 -26.62208823 26.72241793 -25.50362587 25.60935593 C-23.94320072 24.05617636 -22.3859195 22.49990907 -20.8293457 20.94287109 C-19.49961479 19.6164711 -19.49961479 19.6164711 -18.14302063 18.26327515 C-15.87498803 15.99588124 -15.87498803 15.99588124 -14 13 C-13.34 13 -12.68 13 -12 13 C-12 12.34 -12 11.68 -12 11 C-10.35648543 9.63823078 -8.68477344 8.31037934 -7 7 C-5.31384218 5.35305515 -3.64429829 3.68873879 -2 2 C-1.34 1.34 -0.68 0.68 0 0 Z " fill="#40B4CF" transform="translate(420,60)"/>
<path d="M0 0 C1.65 0 3.3 0 5 0 C5.8125 2.1875 5.8125 2.1875 6 5 C3.875 7.5 3.875 7.5 1 10 C-1.58574596 12.52267899 -3.96806052 14.95893495 -6.1875 17.8125 C-6.785625 18.534375 -7.38375 19.25625 -8 20 C-8.66 20 -9.32 20 -10 20 C-10.33 20.99 -10.66 21.98 -11 23 C-11.66 23 -12.32 23 -13 23 C-13.268125 23.639375 -13.53625 24.27875 -13.8125 24.9375 C-15 27 -15 27 -18 28 C-18.433125 28.99 -18.433125 28.99 -18.875 30 C-20 32 -20 32 -22.125 32.8125 C-25.88984917 33.05803364 -29.26973333 32.56902373 -33 32 C-30.97172193 30.98586097 -28.97304011 29.98889887 -26.875 29.125 C-24.52615622 27.71569373 -24.20306501 26.43247451 -23 24 C-22.04119966 22.71812563 -21.04006043 21.4668707 -20 20.25 C-19.484375 19.63640625 -18.96875 19.0228125 -18.4375 18.390625 C-17 17 -17 17 -15 17 C-14.67 16.01 -14.34 15.02 -14 14 C-13.34 14 -12.68 14 -12 14 C-12 13.34 -12 12.68 -12 12 C-11.34 12 -10.68 12 -10 12 C-9.67 11.01 -9.34 10.02 -9 9 C-8.34 9 -7.68 9 -7 9 C-6.67 8.01 -6.34 7.02 -6 6 C-5.34 6 -4.68 6 -4 6 C-4 5.34 -4 4.68 -4 4 C-3.34 4 -2.68 4 -2 4 C-1.34 2.68 -0.68 1.36 0 0 Z " fill="#1A4160" transform="translate(377,147)"/>
<path d="M0 0 C33 0 66 0 100 0 C100 0.33 100 0.66 100 1 C51.49 1.495 51.49 1.495 2 2 C2 13.55 2 25.1 2 37 C27.08 37 52.16 37 78 37 C78 37.33 78 37.66 78 38 C70.58835579 38.14554544 63.17664872 38.28751821 55.76489258 38.42724609 C53.25446092 38.47496623 50.74404349 38.52344276 48.23364258 38.57275391 C32.15212034 38.88801479 16.08479888 39.05186553 0 39 C0 26.13 0 13.26 0 0 Z " fill="#050E21" transform="translate(43,30)"/>
<path d="M0 0 C0.99 0.33 1.98 0.66 3 1 C-6.23992424 11.4267035 -16.10831513 21.20786988 -25.99804688 31.01391602 C-26.65869141 31.66932373 -27.31933594 32.32473145 -28 33 C-28.52737259 33.41533997 -29.05474518 33.83067993 -29.59809875 34.25860596 C-31.61897291 36.7688671 -31.39887778 38.65294015 -31.43237305 41.84838867 C-31.45216721 43.0494072 -31.47196136 44.25042572 -31.49235535 45.48783875 C-31.49874527 46.78478165 -31.50513519 48.08172455 -31.51171875 49.41796875 C-31.52856459 50.75891266 -31.54671471 52.09984076 -31.56611633 53.44075012 C-31.61363358 56.96702131 -31.64343133 60.49322844 -31.66955566 64.01971436 C-31.6993528 67.6193914 -31.74588594 71.21884768 -31.79101562 74.81835938 C-31.87706793 81.87877993 -31.94440444 88.93926864 -32 96 C-32.33 96 -32.66 96 -33 96 C-33.33 77.52 -33.66 59.04 -34 40 C-38.95 44.95 -43.9 49.9 -49 55 C-49.99 55.99 -50.98 56.98 -52 58 C-52.495 56.515 -52.495 56.515 -53 55 C-52.21625 54.4225 -51.4325 53.845 -50.625 53.25 C-47.95705098 51.2576941 -47.95705098 51.2576941 -46.9375 48.875 C-45.72959401 46.45918803 -44.40671259 46.08690246 -42 45 C-41.67 44.34 -41.34 43.68 -41 43 C-40.34 43 -39.68 43 -39 43 C-38.67 42.01 -38.34 41.02 -38 40 C-37.566875 39.5875 -37.13375 39.175 -36.6875 38.75 C-34.74850776 36.89735314 -34.74850776 36.89735314 -33.1875 33.625 C-30.55028232 28.85385046 -26.99680065 26.13454582 -22.25 23.4375 C-19.77377646 21.85546829 -19.0277142 20.70942835 -18 18 C-17.01 18 -16.02 18 -15 18 C-15.495 16.515 -15.495 16.515 -16 15 C-15.34 15 -14.68 15 -14 15 C-14 14.34 -14 13.68 -14 13 C-12.68 13 -11.36 13 -10 13 C-10 11.68 -10 10.36 -10 9 C-9.01 9 -8.02 9 -7 9 C-7 8.34 -7 7.68 -7 7 C-4.625 4.375 -4.625 4.375 -2 2 C-1.34 2 -0.68 2 0 2 C0 1.34 0 0.68 0 0 Z " fill="#467596" transform="translate(199,183)"/>
<path d="M0 0 C0.66 0.33 1.32 0.66 2 1 C0.79180633 4.624581 0.19658087 4.40170957 -3 6 C-3.33 6.99 -3.66 7.98 -4 9 C-8.45714286 13 -8.45714286 13 -11 13 C-11.33 13.99 -11.66 14.98 -12 16 C-12.78375 16.61875 -13.5675 17.2375 -14.375 17.875 C-17.11844012 20.0958801 -18.23688 21.98800334 -20 25 C-21.62339805 26.70884005 -23.29319053 28.37446717 -25 30 C-25.825 30.845625 -26.65 31.69125 -27.5 32.5625 C-30 35 -30 35 -32.625 36.9375 C-35.19852065 38.90184354 -35.19852065 38.90184354 -36.5 42.0625 C-38.22164625 45.43405723 -39.60707202 46.43403324 -43 48 C-43.66 48 -44.32 48 -45 48 C-45.33 48.99 -45.66 49.98 -46 51 C-46.66 51.99 -47.32 52.98 -48 54 C-49.32 54 -50.64 54 -52 54 C-52.495 52.515 -52.495 52.515 -53 51 C-51.89902432 49.87187697 -50.79408444 48.74762189 -49.6875 47.625 C-49.07261719 46.99851563 -48.45773437 46.37203125 -47.82421875 45.7265625 C-45.16939028 43.21385547 -43.72782094 42 -40 42 C-39.773125 41.443125 -39.54625 40.88625 -39.3125 40.3125 C-37.62449964 37.33840412 -35.53323483 35.27991135 -33 33 C-32.34 33 -31.68 33 -31 33 C-31 32.34 -31 31.68 -31 31 C-30.34 31 -29.68 31 -29 31 C-28.79584473 30.46987305 -28.59168945 29.93974609 -28.38134766 29.39355469 C-26.41603509 25.98812443 -23.68177691 23.43695083 -20.8984375 20.703125 C-20.30197418 20.10949158 -19.70551086 19.51585815 -19.0909729 18.90423584 C-17.1903019 17.01473373 -15.28278526 15.13231608 -13.375 13.25 C-12.08287532 11.96790935 -10.79120324 10.68536239 -9.5 9.40234375 C-6.33855521 6.26291568 -3.1709539 3.12982199 0 0 Z " fill="#32B8DE" transform="translate(394,88)"/>
<path d="M0 0 C0.12375 0.639375 0.2475 1.27875 0.375 1.9375 C0.58125 2.618125 0.7875 3.29875 1 4 C1.66 4.33 2.32 4.66 3 5 C1.20751967 7.33637946 0.32832545 7.95510951 -2.63859558 8.36076355 C-4.22744316 8.3507708 -4.22744316 8.3507708 -5.84838867 8.34057617 C-7.06619019 8.34021362 -8.2839917 8.33985107 -9.53869629 8.33947754 C-11.45893616 8.31645569 -11.45893616 8.31645569 -13.41796875 8.29296875 C-14.5944397 8.28994751 -15.77091064 8.28692627 -16.98303223 8.28381348 C-21.38461051 8.2680981 -25.78606392 8.22621427 -30.1875 8.1875 C-40.025625 8.125625 -49.86375 8.06375 -60 8 C-60 43.31 -60 78.62 -60 115 C-60.33 115 -60.66 115 -61 115 C-61 79.36 -61 43.72 -61 7 C-41.2 7 -21.4 7 -1 7 C-0.67 4.69 -0.34 2.38 0 0 Z " fill="#E8FBFE" transform="translate(228,62)"/>
<path d="M0 0 C0.33 0 0.66 0 1 0 C1.13050605 19.37537461 1.26089736 38.75074999 1.39115143 58.12612629 C1.45163091 67.12208912 1.51214819 76.11805169 1.57275391 85.11401367 C1.6255669 92.95328334 1.67830953 100.79255348 1.73096704 108.6318242 C1.75886088 112.78408892 1.78679037 116.9363534 1.81480408 121.08861732 C1.84115577 124.99469826 1.86741357 128.90077982 1.89359856 132.80686188 C1.90323853 134.24239055 1.91291316 135.677919 1.92262459 137.11344719 C1.93585456 139.06983758 1.94894904 141.02622889 1.96203613 142.98262024 C1.96941048 144.0786321 1.97678482 145.17464396 1.98438263 146.30386829 C1.99538079 148.20255415 2 150.10128229 2 152 C1.34 152.33 0.68 152.66 0 153 C0 102.51 0 52.02 0 0 Z " fill="#1F2D42" transform="translate(122,69)"/>
<path d="M0 0 C0.74056641 0.00902344 1.48113281 0.01804688 2.24414062 0.02734375 C4.05873467 0.05075787 5.87316071 0.08662385 7.6875 0.125 C7.6875 0.455 7.6875 0.785 7.6875 1.125 C2.7375 1.455 -2.2125 1.785 -7.3125 2.125 C-7.3125 2.785 -7.3125 3.445 -7.3125 4.125 C-8.3025 4.455 -9.2925 4.785 -10.3125 5.125 C-11.09625 5.95 -11.88 6.775 -12.6875 7.625 C-15.4096156 10.21749105 -16.65179183 10.81122501 -20.3125 11.125 C-20.6425 13.435 -20.9725 15.745 -21.3125 18.125 C-21.993125 18.145625 -22.67375 18.16625 -23.375 18.1875 C-27.24952916 19.42405186 -29.06971296 21.66232781 -31.76171875 24.62890625 C-33.3125 26.125 -33.3125 26.125 -35.3125 26.125 C-34.4069593 20.88911725 -30.84027847 17.87765678 -27.3125 14.125 C-26.43464844 13.18527344 -26.43464844 13.18527344 -25.5390625 12.2265625 C-17.87133747 4.28127276 -11.36206109 -0.26399784 0 0 Z " fill="#2B739A" transform="translate(214.3125,157.875)"/>
<path d="M0 0 C2.475 0.495 2.475 0.495 5 1 C5.1546875 1.9590625 5.1546875 1.9590625 5.3125 2.9375 C5.6528125 3.9584375 5.6528125 3.9584375 6 5 C6.99 5.33 7.98 5.66 9 6 C9.48462007 8.77922268 9.6583843 10.30450459 9 13 C6.61913886 16.28014553 3.71683947 18.94015841 0.75 21.6875 C-0.41595703 22.80608398 -0.41595703 22.80608398 -1.60546875 23.94726562 C-3.05757983 25.33856179 -4.51678434 26.72252073 -5.98535156 28.09643555 C-7.40587643 29.4386353 -8.78498022 30.82534395 -10.13183594 32.24145508 C-12 34 -12 34 -14 34 C-14.24492187 34.57234375 -14.48984375 35.1446875 -14.7421875 35.734375 C-16.21110099 38.38024402 -17.95348244 40.14853139 -20.125 42.25 C-20.84945313 42.95640625 -21.57390625 43.6628125 -22.3203125 44.390625 C-22.87460937 44.92171875 -23.42890625 45.4528125 -24 46 C-24.99 45.67 -25.98 45.34 -27 45 C-23.46037668 40.61760922 -19.8087294 36.7995281 -15.41796875 33.26171875 C-13.8630558 32.03520707 -13.8630558 32.03520707 -13 30 C-12.34 30 -11.68 30 -11 30 C-10.67 29.01 -10.34 28.02 -10 27 C-8.5625 25.3125 -8.5625 25.3125 -7 24 C-6.34 24 -5.68 24 -5 24 C-4.77570313 23.44828125 -4.55140625 22.8965625 -4.3203125 22.328125 C-2.59614817 19.28788256 -0.37484178 17.18574327 2.125 14.75 C3.03507812 13.85796875 3.94515625 12.9659375 4.8828125 12.046875 C5.58148438 11.37140625 6.28015625 10.6959375 7 10 C5.72620281 7.26193128 4.34756812 5.03402625 2.375 2.75 C1.59125 1.8425 0.8075 0.935 0 0 Z " fill="#D4F7FA" transform="translate(426,64)"/>
<path d="M0 0 C0.99 0.33 1.98 0.66 3 1 C2.01 1.33 1.02 1.66 0 2 C-0.33 2.66 -0.66 3.32 -1 4 C-1.33 4.66 -1.66 5.32 -2 6 C-2.99 6.33 -3.98 6.66 -5 7 C-5.68486725 8.32407669 -6.34870203 9.65909241 -7 11 C-9 13.25 -9 13.25 -11 15 C-11.66 15 -12.32 15 -13 15 C-13.2371875 15.56203125 -13.474375 16.1240625 -13.71875 16.703125 C-15.28947697 19.51894042 -17.21471464 21.47955416 -19.5 23.75 C-20.2940625 24.54921875 -21.088125 25.3484375 -21.90625 26.171875 C-24 28 -24 28 -26 28 C-26.28875 28.639375 -26.5775 29.27875 -26.875 29.9375 C-28 32 -28 32 -30 33 C-30.99 32.01 -31.98 31.02 -33 30 C-32.071875 29.319375 -32.071875 29.319375 -31.125 28.625 C-28.94080167 27.02891081 -28.94080167 27.02891081 -27 25 C-27 24.34 -27 23.68 -27 23 C-25.948125 22.4225 -24.89625 21.845 -23.8125 21.25 C-18.24171569 18.06508695 -13.56838347 14.35257521 -10 9 C-6.8841833 5.71576078 -3.74347586 2.56132559 0 0 Z " fill="#45B6D2" transform="translate(402,103)"/>
<path d="M0 0 C3.3 0.66 6.6 1.32 10 2 C7 3 7 3 4.71875 3.171875 C0.62343968 4.41929711 -1.61153868 7.18729276 -4.5 10.25 C-5.05558594 10.82363281 -5.61117188 11.39726562 -6.18359375 11.98828125 C-7.27950629 13.12029444 -8.37147948 14.25613636 -9.45922852 15.39599609 C-10.86888864 16.8635079 -12.30619326 18.30433523 -13.74609375 19.7421875 C-15.40369817 21.40266472 -17.00138178 23.12350151 -18.5625 24.875 C-19.366875 25.57625 -20.17125 26.2775 -21 27 C-23.15234375 26.6328125 -23.15234375 26.6328125 -25 26 C-24.27820557 25.28344238 -23.55641113 24.56688477 -22.81274414 23.82861328 C-20.13964596 21.17359277 -17.46984029 18.51528247 -14.80102539 15.85595703 C-13.64469755 14.70466305 -12.48747446 13.55426751 -11.3293457 12.40478516 C-9.66642789 10.75397424 -8.0067389 9.09997663 -6.34765625 7.4453125 C-5.56794212 6.6733403 -5.56794212 6.6733403 -4.7724762 5.88577271 C-2.04458311 3.20150686 -2.04458311 3.20150686 0 0 Z " fill="#DDF8FA" transform="translate(332,175)"/>
<path d="M0 0 C0 3 0 3 -2.51953125 5.7421875 C-3.60995892 6.79400418 -4.70797598 7.8379959 -5.8125 8.875 C-9.53457317 12.39102201 -12.42466555 15.52903815 -15 20 C-16.71875 21.6953125 -16.71875 21.6953125 -18.5 23.125 C-20.22460756 24.52435263 -21.89029664 25.88970842 -23.45703125 27.46484375 C-25.91228659 29.90766741 -28.6596761 32.01238778 -31.35546875 34.18359375 C-33.4474425 36.08582804 -33.4474425 36.08582804 -33 40 C-33.5775 40.12375 -34.155 40.2475 -34.75 40.375 C-37.02335767 41.00648824 -38.9253529 41.88858191 -41 43 C-41 40 -41 40 -39 38 C-38.34 38.33 -37.68 38.66 -37 39 C-36.74094879 38.41563171 -36.48189758 37.83126343 -36.21499634 37.22918701 C-34.90766642 34.83059305 -33.49556464 33.25458935 -31.56005859 31.33300781 C-30.50919571 30.28237152 -30.50919571 30.28237152 -29.43710327 29.21051025 C-28.68184357 28.46557312 -27.92658386 27.72063599 -27.1484375 26.953125 C-26.37440582 26.18192322 -25.60037415 25.41072144 -24.80288696 24.6161499 C-22.33158077 22.15603144 -19.85340817 19.70296152 -17.375 17.25 C-15.69745948 15.58249106 -14.02037055 13.91452768 -12.34375 12.24609375 C-8.23439081 8.1587763 -4.11937353 4.07722304 0 0 Z " fill="#32ACD7" transform="translate(336,147)"/>
<path d="M0 0 C0.33 1.32 0.66 2.64 1 4 C-2.75 7 -2.75 7 -5 7 C-5.09268661 7.61007904 -5.18537323 8.22015808 -5.28086853 8.84872437 C-6.17912867 11.53586189 -7.13895934 11.95228616 -9.50610352 13.42041016 C-12.02384867 15.48361884 -12.89747202 16.56975857 -13.66061401 19.77215576 C-13.90622752 23.28813581 -13.9429358 26.74902706 -13.90234375 30.2734375 C-13.91463516 31.55231842 -13.92692657 32.83119934 -13.93959045 34.14883423 C-13.96594176 37.53304549 -13.96241212 40.9145089 -13.94421387 44.29858398 C-13.93302887 47.7577992 -13.96138515 51.21667126 -13.98632812 54.67578125 C-14.02719076 61.45079036 -14.02864827 68.22494744 -14 75 C-14.33 75 -14.66 75 -15 75 C-15 55.2 -15 35.4 -15 15 C-14.01 14.67 -13.02 14.34 -12 14 C-11.71382812 13.42765625 -11.42765625 12.8553125 -11.1328125 12.265625 C-9.57911246 9.15822492 -7.35590353 7.16729061 -4.875 4.75 C-3.96492187 3.85796875 -3.05484375 2.9659375 -2.1171875 2.046875 C-1.41851562 1.37140625 -0.71984375 0.6959375 0 0 Z " fill="#EBF5FC" transform="translate(182,204)"/>
<path d="M0 0 C0.99 0.66 1.98 1.32 3 2 C-2 7 -2 7 -4.2265625 9.21875 C-6.32176268 11.31985215 -8.40449053 13.43084313 -10.48046875 15.55078125 C-11.71606836 16.80476385 -12.95174673 18.05866883 -14.1875 19.3125 C-15.13012695 20.28026367 -15.13012695 20.28026367 -16.09179688 21.26757812 C-16.69443359 21.87666016 -17.29707031 22.48574219 -17.91796875 23.11328125 C-18.46219482 23.66798096 -19.0064209 24.22268066 -19.56713867 24.79418945 C-21 26 -21 26 -23 26 C-23 24.68 -23 23.36 -23 22 C-22.21625 21.7525 -21.4325 21.505 -20.625 21.25 C-17.53345968 19.77783794 -17.30679366 19.04918521 -16 16 C-11.53389831 10.09322034 -11.53389831 10.09322034 -9 8 C-8.01 8 -7.02 8 -6 8 C-5.67 6.68 -5.34 5.36 -5 4 C-4.34 4 -3.68 4 -3 4 C-3 3.34 -3 2.68 -3 2 C-2.01 1.34 -1.02 0.68 0 0 Z " fill="#40AED2" transform="translate(367,137)"/>
<path d="M0 0 C0.66 0.33 1.32 0.66 2 1 C0.79180633 4.624581 0.19658087 4.40170957 -3 6 C-3.33 6.99 -3.66 7.98 -4 9 C-8.45714286 13 -8.45714286 13 -11 13 C-11.33 13.99 -11.66 14.98 -12 16 C-12.78375 16.61875 -13.5675 17.2375 -14.375 17.875 C-17.11844012 20.0958801 -18.23688 21.98800334 -20 25 C-21.64646685 26.68662458 -23.31183067 28.35511706 -25 30 C-25.66 30.99 -26.32 31.98 -27 33 C-28.32 33 -29.64 33 -31 33 C-31 32.34 -31 31.68 -31 31 C-30.34 31 -29.68 31 -29 31 C-28.79584473 30.46987305 -28.59168945 29.93974609 -28.38134766 29.39355469 C-26.41603509 25.98812443 -23.68177691 23.43695083 -20.8984375 20.703125 C-20.30197418 20.10949158 -19.70551086 19.51585815 -19.0909729 18.90423584 C-17.1903019 17.01473373 -15.28278526 15.13231608 -13.375 13.25 C-12.08287532 11.96790935 -10.79120324 10.68536239 -9.5 9.40234375 C-6.33855521 6.26291568 -3.1709539 3.12982199 0 0 Z " fill="#34C0E5" transform="translate(394,88)"/>
<path d="M0 0 C0.66 0.33 1.32 0.66 2 1 C0.42369323 4.87321093 -2.07747669 7.24735163 -5.0625 10.125 C-8.46453483 13.24105765 -8.46453483 13.24105765 -11 17 C-11.66 17 -12.32 17 -13 17 C-13.33 17.99 -13.66 18.98 -14 20 C-15.4375 21.6875 -15.4375 21.6875 -17 23 C-17.66 23 -18.32 23 -19 23 C-19.33 23.99 -19.66 24.98 -20 26 C-20.66 26 -21.32 26 -22 26 C-22.66 27.32 -23.32 28.64 -24 30 C-24.99 30 -25.98 30 -27 30 C-23.24390244 22.75609756 -23.24390244 22.75609756 -19 21 C-18.67 20.01 -18.34 19.02 -18 18 C-17.01 17.67 -16.02 17.34 -15 17 C-11.17302847 13.55835627 -11.17302847 13.55835627 -9 9 C-8.34 9 -7.68 9 -7 9 C-7 8.34 -7 7.68 -7 7 C-6.01 6.67 -5.02 6.34 -4 6 C-3.67 5.34 -3.34 4.68 -3 4 C-2.34 4 -1.68 4 -1 4 C-0.67 2.68 -0.34 1.36 0 0 Z " fill="#3EB7D4" transform="translate(432,71)"/>
<path d="M0 0 C0.99 0.33 1.98 0.66 3 1 C-5.96054318 11.04432378 -15.42975761 20.53933411 -25 30 C-25 27 -25 27 -23.72265625 25.5 C-23.17480469 25.005 -22.62695312 24.51 -22.0625 24 C-19.72464075 21.87768805 -19.03724116 21.11172349 -18 18 C-17.01 18 -16.02 18 -15 18 C-15.33 17.01 -15.66 16.02 -16 15 C-15.34 15 -14.68 15 -14 15 C-14 14.34 -14 13.68 -14 13 C-12.68 13 -11.36 13 -10 13 C-10 11.68 -10 10.36 -10 9 C-9.01 9 -8.02 9 -7 9 C-7 8.34 -7 7.68 -7 7 C-4.625 4.375 -4.625 4.375 -2 2 C-1.34 2 -0.68 2 0 2 C0 1.34 0 0.68 0 0 Z " fill="#1A6088" transform="translate(199,183)"/>
<path d="M0 0 C1.32 0.33 2.64 0.66 4 1 C3.0695402 4.83814667 1.37762814 6.71004001 -1.5625 9.15625 C-6.10285732 13.03625661 -10.3041532 17.19114763 -14.5 21.4375 C-15.22703125 22.16904297 -15.9540625 22.90058594 -16.703125 23.65429688 C-18.47109499 25.43389824 -20.23666378 27.21580918 -22 29 C-22.99 28.67 -23.98 28.34 -25 28 C-16.42 19.42 -7.84 10.84 1 2 C0.67 1.34 0.34 0.68 0 0 Z " fill="#D4E6ED" transform="translate(409,50)"/>
<path d="M0 0 C4.71505796 0.4715058 5.75741007 1.81624441 8.75 5.375 C9.513125 6.138125 10.27625 6.90125 11.0625 7.6875 C11.619375 8.244375 12.17625 8.80125 12.75 9.375 C12.42 10.035 12.09 10.695 11.75 11.375 C11.0075 10.75625 10.265 10.1375 9.5 9.5 C5.3258243 6.2745006 2.5104017 4.8238996 -2.9453125 4.90625 C-7.58256208 5.84941941 -11.40332253 8.72646797 -15.25 11.375 C-15.0625 9.046875 -15.0625 9.046875 -14.25 6.375 C-12 4.828125 -12 4.828125 -9.25 3.625 C-1.58027523 0.18233945 -1.58027523 0.18233945 0 0 Z " fill="#2E85A9" transform="translate(217.25,171.625)"/>
<path d="M0 0 C3.3956697 -0.08745946 6.79104773 -0.14054444 10.1875 -0.1875 C11.14720703 -0.21263672 12.10691406 -0.23777344 13.09570312 -0.26367188 C18.35821127 -0.31829999 21.63157166 -0.21207966 26 3 C28.42095205 3.76305262 28.42095205 3.76305262 30.8125 4.1875 C31.60269531 4.34605469 32.39289063 4.50460938 33.20703125 4.66796875 C33.79871094 4.77753906 34.39039063 4.88710937 35 5 C34.34 5.33 33.68 5.66 33 6 C32.67 6.66 32.34 7.32 32 8 C31.28457031 7.6390625 30.56914062 7.278125 29.83203125 6.90625 C19.40566965 2.05050592 9.95605124 1.56280745 -1 5 C-0.67 3.35 -0.34 1.7 0 0 Z " fill="#DBF7F9" transform="translate(203,155)"/>
<path d="M0 0 C0.12375 0.639375 0.2475 1.27875 0.375 1.9375 C0.58125 2.618125 0.7875 3.29875 1 4 C1.66 4.33 2.32 4.66 3 5 C1.19849706 7.36007528 0.31593107 7.95741682 -2.67655945 8.36076355 C-3.75355606 8.35410172 -4.83055267 8.34743988 -5.94018555 8.34057617 C-7.16122482 8.34034958 -8.3822641 8.34012299 -9.64030457 8.33988953 C-11.61852959 8.31666374 -11.61852959 8.31666374 -13.63671875 8.29296875 C-15.00006138 8.28737243 -16.36341004 8.2831025 -17.72676086 8.28010559 C-21.31243592 8.26865949 -24.89774554 8.23919486 -28.48327637 8.20599365 C-32.1430975 8.17528739 -35.80297777 8.1615991 -39.46289062 8.14648438 C-46.64209356 8.11432449 -53.82099554 8.06313153 -61 8 C-61 7.67 -61 7.34 -61 7 C-41.2 7 -21.4 7 -1 7 C-0.67 4.69 -0.34 2.38 0 0 Z " fill="#C9E1E7" transform="translate(228,62)"/>
<path d="M0 0 C1.32 0.33 2.64 0.66 4 1 C-3.26 8.26 -10.52 15.52 -18 23 C-18.33 21.68 -18.66 20.36 -19 19 C-18.01 19 -17.02 19 -16 19 C-15.9175 18.4225 -15.835 17.845 -15.75 17.25 C-14.774018 14.32205399 -13.36488777 12.94755463 -11 11 C-10.01 11 -9.02 11 -8 11 C-8 10.34 -8 9.68 -8 9 C-7.34 9 -6.68 9 -6 9 C-6 8.01 -6 7.02 -6 6 C-5.34 6 -4.68 6 -4 6 C-3.566875 5.071875 -3.566875 5.071875 -3.125 4.125 C-2 2 -2 2 0 0 Z " fill="#C5F1F7" transform="translate(330,147)"/>
<path d="M0 0 C4.12493872 -0.05875981 8.24976768 -0.09384938 12.375 -0.125 C13.53128906 -0.14175781 14.68757813 -0.15851562 15.87890625 -0.17578125 C22.84367123 -0.2151302 29.24033792 0.2864189 36 2 C36 2.33 36 2.66 36 3 C17.685 2.505 17.685 2.505 -1 2 C-0.67 1.34 -0.34 0.68 0 0 Z " fill="#29506B" transform="translate(318,25)"/>
<path d="M0 0 C2.475 0.495 2.475 0.495 5 1 C5.33 2.65 5.66 4.3 6 6 C6.99 6.33 7.98 6.66 9 7 C11.6875 9.4375 11.6875 9.4375 14 12 C14 12.66 14 13.32 14 14 C14.53625 14.226875 15.0725 14.45375 15.625 14.6875 C18.17663397 16.09761351 20.20563325 17.86034194 22.40625 19.7578125 C24.74482944 21.58052883 27.30923342 22.78274845 30 24 C28.31640625 24.703125 28.31640625 24.703125 26 25 C15.96498472 19.73039716 6.76286424 9.95961829 0 1 C0 0.67 0 0.34 0 0 Z " fill="#2E85AA" transform="translate(233,186)"/>
<path d="M0 0 C0.99 0.66 1.98 1.32 3 2 C-3.6 8.6 -10.2 15.2 -17 22 C-17.66 21.34 -18.32 20.68 -19 20 C-17.625 18 -17.625 18 -16 16 C-15.34 16 -14.68 16 -14 16 C-14 15.34 -14 14.68 -14 14 C-8.52380952 9 -8.52380952 9 -6 9 C-5.67 7.68 -5.34 6.36 -5 5 C-4.01 5 -3.02 5 -2 5 C-2 4.01 -2 3.02 -2 2 C-1.34 2 -0.68 2 0 2 C0 1.34 0 0.68 0 0 Z " fill="#D4ECF3" transform="translate(178,178)"/>
<path d="M0 0 C1.06541016 0.00902344 2.13082031 0.01804687 3.22851562 0.02734375 C5.84008034 0.05076586 8.45116937 0.08356548 11.0625 0.125 C10.7325 0.785 10.4025 1.445 10.0625 2.125 C6.90234375 2.5390625 6.90234375 2.5390625 3 2.75 C1.70964844 2.82476562 0.41929687 2.89953125 -0.91015625 2.9765625 C-1.90917969 3.02554687 -2.90820312 3.07453125 -3.9375 3.125 C-3.9375 3.455 -3.9375 3.785 -3.9375 4.125 C-5.68715358 4.17929959 -7.43729787 4.21792823 -9.1875 4.25 C-10.16203125 4.27320313 -11.1365625 4.29640625 -12.140625 4.3203125 C-14.9571498 4.12362781 -16.54699036 3.57068916 -18.9375 2.125 C-12.59561536 -0.15987759 -6.69170732 -0.10799776 0 0 Z " fill="#132F4B" transform="translate(326.9375,278.875)"/>
<path d="M0 0 C0.66 0.33 1.32 0.66 2 1 C1.34 1.94875 0.68 2.8975 0 3.875 C-2.17968457 6.66238955 -2.17968457 6.66238955 -2 9 C-2.99 9 -3.98 9 -5 9 C-8.98781348 12.55669851 -12.83126612 16.67701942 -16 21 C-16 21.66 -16 22.32 -16 23 C-18.31 23.66 -20.62 24.32 -23 25 C-18.55985441 19.54496399 -13.69342672 14.62115263 -8.67114258 9.70825195 C-5.54006599 6.62542429 -2.67055671 3.50429149 0 0 Z " fill="#DBECF2" transform="translate(332,131)"/>
<path d="M0 0 C0 5.50728119 -5.30931931 9.22704299 -9 13 C-11.2568783 15.10816927 -13.57620001 17.08747032 -16 19 C-16.763125 19.61875 -17.52625 20.2375 -18.3125 20.875 C-20 22 -20 22 -22 22 C-20.87410807 18.6223242 -19.68056948 17.28636808 -17 15 C-16.01 15 -15.02 15 -14 15 C-13.67 14.01 -13.34 13.02 -13 12 C-12.01 11.67 -11.02 11.34 -10 11 C-8.21744992 9.24118094 -8.21744992 9.24118094 -6.5 7.125 C-4.41421775 4.64584653 -2.32698713 2.2560424 0 0 Z " fill="#123F62" transform="translate(158,229)"/>
<path d="M0 0 C2.70575922 1.06297684 3.94783395 1.93036605 5.71484375 4.2890625 C8.37525679 7.44517644 11.35446973 9.51652271 14.8125 11.6875 C15.40353516 12.07744141 15.99457031 12.46738281 16.60351562 12.86914062 C19.65526392 14.81600295 22.36126155 16.20809228 25.88671875 17.08203125 C27.42779297 17.53642578 27.42779297 17.53642578 29 18 C29.33 18.99 29.66 19.98 30 21 C18.50293179 19.20422813 7.66530478 10.41612051 0 2 C0 1.34 0 0.68 0 0 Z " fill="#173959" transform="translate(255,137)"/>
<path d="M0 0 C0.33 0.66 0.66 1.32 1 2 C-2.18852628 8.6132397 -2.18852628 8.6132397 -4.75390625 9.8359375 C-8.18773489 11.61555652 -10.57576452 14.36759451 -13.25 17.125 C-13.80429688 17.68832031 -14.35859375 18.25164062 -14.9296875 18.83203125 C-16.29104485 20.21686028 -17.64614859 21.60783204 -19 23 C-19.66 22.67 -20.32 22.34 -21 22 C-20.08476562 21.09636719 -19.16953125 20.19273437 -18.2265625 19.26171875 C-17.02590942 18.07044577 -15.82539585 16.87903217 -14.625 15.6875 C-14.02171875 15.09259766 -13.4184375 14.49769531 -12.796875 13.88476562 C-12.21679688 13.30791016 -11.63671875 12.73105469 -11.0390625 12.13671875 C-10.50490723 11.60780029 -9.97075195 11.07888184 -9.42041016 10.53393555 C-7.78498535 8.8489902 -7.78498535 8.8489902 -6 6 C-5.34 6 -4.68 6 -4 6 C-3.566875 5.071875 -3.566875 5.071875 -3.125 4.125 C-2 2 -2 2 0 0 Z " fill="#F1F7FA" transform="translate(158,185)"/>
<path d="M0 0 C0.33 0.66 0.66 1.32 1 2 C-1.30466166 5.16890978 -3.77203743 7.73514578 -6.75 10.25 C-10.700207 13.6010183 -14.01271554 17.31198528 -17.3359375 21.27734375 C-17.88507813 21.84582031 -18.43421875 22.41429687 -19 23 C-19.66 23 -20.32 23 -21 23 C-21 22.34 -21 21.68 -21 21 C-20.34 21 -19.68 21 -19 21 C-18.62609131 20.13713379 -18.62609131 20.13713379 -18.24462891 19.25683594 C-16.82126077 16.67589928 -15.18451214 14.95787763 -13.0859375 12.890625 C-12.32539063 12.13652344 -11.56484375 11.38242188 -10.78125 10.60546875 C-9.9871875 9.82816406 -9.193125 9.05085937 -8.375 8.25 C-7.57320312 7.45722656 -6.77140625 6.66445312 -5.9453125 5.84765625 C-3.96797154 3.89385507 -1.98611091 1.94487897 0 0 Z " fill="#2A75A6" transform="translate(171,191)"/>
<path d="M0 0 C2.23413013 3.35119519 2.23847762 4.4177755 2.1953125 8.32421875 C2.18886719 9.35224609 2.18242187 10.38027344 2.17578125 11.43945312 C2.15902344 12.51130859 2.14226562 13.58316406 2.125 14.6875 C2.11597656 15.77095703 2.10695313 16.85441406 2.09765625 17.97070312 C2.0740734 20.6473571 2.04116126 23.32356797 2 26 C1.34 26 0.68 26 0 26 C-0.19625099 22.04204914 -0.38051982 18.08363065 -0.5625 14.125 C-0.61857422 12.99707031 -0.67464844 11.86914062 -0.73242188 10.70703125 C-0.80493164 9.09248047 -0.80493164 9.09248047 -0.87890625 7.4453125 C-0.9260376 6.45031738 -0.97316895 5.45532227 -1.02172852 4.43017578 C-1 2 -1 2 0 0 Z " fill="#151B28" transform="translate(421,190)"/>
<path d="M0 0 C0.33 1.32 0.66 2.64 1 4 C-2.75 7 -2.75 7 -5 7 C-5.09152344 7.59296875 -5.18304688 8.1859375 -5.27734375 8.796875 C-6.17232113 11.52534657 -7.33906301 12.47125041 -9.5625 14.25 C-10.20316406 14.77078125 -10.84382812 15.2915625 -11.50390625 15.828125 C-11.99761719 16.21484375 -12.49132812 16.6015625 -13 17 C-13.66 16.34 -14.32 15.68 -15 15 C-14.01 14.67 -13.02 14.34 -12 14 C-11.71382812 13.42765625 -11.42765625 12.8553125 -11.1328125 12.265625 C-9.57911246 9.15822492 -7.35590353 7.16729061 -4.875 4.75 C-3.96492187 3.85796875 -3.05484375 2.9659375 -2.1171875 2.046875 C-1.41851562 1.37140625 -0.71984375 0.6959375 0 0 Z " fill="#D3EBF1" transform="translate(182,204)"/>
<path d="M0 0 C0.66 0.33 1.32 0.66 2 1 C1.67 2.98 1.34 4.96 1 7 C-0.0209375 7.0309375 -0.0209375 7.0309375 -1.0625 7.0625 C-4.93702916 8.29905186 -6.75721296 10.53732781 -9.44921875 13.50390625 C-11 15 -11 15 -13 15 C-12.44225728 11.76509224 -11.62788492 10.02144994 -9 8 C-8.01 8 -7.02 8 -6 8 C-6 7.34 -6 6.68 -6 6 C-5.34 6 -4.68 6 -4 6 C-3.67 5.01 -3.34 4.02 -3 3 C-2.34 3 -1.68 3 -1 3 C-0.67 2.01 -0.34 1.02 0 0 Z " fill="#2A7DAE" transform="translate(192,169)"/>
<path d="M0 0 C0.99 0.33 1.98 0.66 3 1 C2.30519531 1.68449219 1.61039062 2.36898437 0.89453125 3.07421875 C-2.26699763 6.23574763 -5.29021864 9.51847038 -8.3125 12.8125 C-8.86228516 13.40998047 -9.41207031 14.00746094 -9.97851562 14.62304688 C-11.31996978 16.08114922 -12.66012065 17.5404504 -14 19 C-14.625 17.125 -14.625 17.125 -15 15 C-14.34 14.34 -13.68 13.68 -13 13 C-12.01 13 -11.02 13 -10 13 C-9.67 11.68 -9.34 10.36 -9 9 C-8.34 9 -7.68 9 -7 9 C-6.67 7.68 -6.34 6.36 -6 5 C-5.34 5 -4.68 5 -4 5 C-4 4.34 -4 3.68 -4 3 C-2.68 3 -1.36 3 0 3 C0 2.01 0 1.02 0 0 Z " fill="#CDF5F8" transform="translate(349,128)"/>
<path d="M0 0 C0.639375 0.66 1.27875 1.32 1.9375 2 C5.7829235 5.85653744 9.90924419 9.40833422 14 13 C10.82686433 14.05771189 10.01351938 14.16219061 7 13 C5.296875 11.44140625 5.296875 11.44140625 3.75 9.5625 C3.22921875 8.94503906 2.7084375 8.32757813 2.171875 7.69140625 C1 6 1 6 1 4 C0.34 4 -0.32 4 -1 4 C-0.67 2.68 -0.34 1.36 0 0 Z " fill="#DFEEF1" transform="translate(251,134)"/>
<path d="M0 0 C0.83856598 3.3542639 1.08073332 5.22794099 0.87890625 8.546875 C0.83056641 9.39121094 0.78222656 10.23554687 0.73242188 11.10546875 C0.67634766 11.97816406 0.62027344 12.85085937 0.5625 13.75 C0.51029297 14.63816406 0.45808594 15.52632812 0.40429688 16.44140625 C0.27498267 18.62799196 0.14003358 20.81407894 0 23 C-0.66 23.33 -1.32 23.66 -2 24 C-2.85298376 20.32612505 -3.10789471 16.9552607 -3.0625 13.1875 C-3.05347656 12.21167969 -3.04445312 11.23585938 -3.03515625 10.23046875 C-3.02355469 9.49441406 -3.01195312 8.75835937 -3 8 C-2.67 8 -2.34 8 -2 8 C-1.34 5.36 -0.68 2.72 0 0 Z " fill="#CEDEE4" transform="translate(241,85)"/>
<path d="M0 0 C0.33 0.99 0.66 1.98 1 3 C-0.0828125 4.03060547 -0.0828125 4.03060547 -1.1875 5.08203125 C-2.115625 5.98308594 -3.04375 6.88414062 -4 7.8125 C-4.928125 8.70582031 -5.85625 9.59914062 -6.8125 10.51953125 C-9.33071315 12.82379728 -9.33071315 12.82379728 -9 16 C-10.32 15.67 -11.64 15.34 -13 15 C-11.80305384 10.0625971 -8.72863565 7.75150833 -4.97265625 4.6484375 C-3.21084313 3.17618971 -1.59447784 1.64945984 0 0 Z " fill="#DBF4F6" transform="translate(382,126)"/>
<path d="M0 0 C1.65 0 3.3 0 5 0 C0.88380164 4.91935902 -3.40410362 9.52647956 -8 14 C-9.2077558 10.37673261 -8.54311128 9.35853631 -7 6 C-6.01 6.33 -5.02 6.66 -4 7 C-3.34 5.68 -2.68 4.36 -2 3 C-1.01 3 -0.02 3 1 3 C0.67 2.01 0.34 1.02 0 0 Z " fill="#C7F5F8" transform="translate(397,78)"/>
<path d="M0 0 C0 0.66 0 1.32 0 2 C0.66 1.835 1.32 1.67 2 1.5 C5.73099794 0.87816701 9.21873378 0.93591074 13 1 C13 1.33 13 1.66 13 2 C11.13794922 2.29003906 11.13794922 2.29003906 9.23828125 2.5859375 C7.59630539 2.84865364 5.95438096 3.11169141 4.3125 3.375 C3.49587891 3.50132813 2.67925781 3.62765625 1.83789062 3.7578125 C-1.60047544 4.31463291 -4.6505073 4.85944828 -7.89453125 6.1640625 C-10 7 -10 7 -13 6 C-12.34 6 -11.68 6 -11 6 C-11 5.34 -11 4.68 -11 4 C-10.236875 3.71125 -9.47375 3.4225 -8.6875 3.125 C-1.22222222 0 -1.22222222 0 0 0 Z " fill="#C0D4DC" transform="translate(302,25)"/>
<path d="M0 0 C0.99 0.33 1.98 0.66 3 1 C-1.62 5.62 -6.24 10.24 -11 15 C-11.66 14.34 -12.32 13.68 -13 13 C-11.92807816 11.6781638 -10.84197305 10.36782073 -9.75 9.0625 C-9.14671875 8.33160156 -8.5434375 7.60070312 -7.921875 6.84765625 C-5.89258866 4.89673666 -4.745593 4.38268221 -2 4 C-2 3.01 -2 2.02 -2 1 C-1.34 0.67 -0.68 0.34 0 0 Z " fill="#CFE4ED" transform="translate(132,226)"/>
<path d="M0 0 C0.66 0.33 1.32 0.66 2 1 C-0.15381444 6.28663545 -4.42236838 9.77870367 -9 13 C-9.66 12.34 -10.32 11.68 -11 11 C-7.37 7.37 -3.74 3.74 0 0 Z " fill="#E2F6F7" transform="translate(194,192)"/>
<path d="M0 0 C-0.33 0.99 -0.66 1.98 -1 3 C-1.66 3 -2.32 3 -3 3 C-3.24492187 3.57234375 -3.48984375 4.1446875 -3.7421875 4.734375 C-5.21110099 7.38024402 -6.95348244 9.14853139 -9.125 11.25 C-9.84945313 11.95640625 -10.57390625 12.6628125 -11.3203125 13.390625 C-11.87460937 13.92171875 -12.42890625 14.4528125 -13 15 C-13.99 14.67 -14.98 14.34 -16 14 C-4.57142857 0 -4.57142857 0 0 0 Z " fill="#DCFBFB" transform="translate(415,95)"/>
<path d="M0 0 C0.33 0.66 0.66 1.32 1 2 C-3.34295237 8.82463943 -5.9346502 12.13876543 -14 14 C-12.83747024 10.51241071 -12.32701175 10.37060229 -9.25 8.6875 C-5.20227622 6.29963417 -2.79414294 3.75462957 0 0 Z " fill="#192234" transform="translate(374,226)"/>
<path d="M0 0 C0.33 1.32 0.66 2.64 1 4 C-2.15907936 7.8291871 -5.88639109 10.28875776 -10 13 C-10.33 13.66 -10.66 14.32 -11 15 C-11.99 14.67 -12.98 14.34 -14 14 C-9.38 9.38 -4.76 4.76 0 0 Z " fill="#1A5682" transform="translate(136,225)"/>
<path d="M0 0 C0.99 0.33 1.98 0.66 3 1 C1.21188257 2.98247802 -0.58025519 4.96103728 -2.375 6.9375 C-2.88289062 7.50146484 -3.39078125 8.06542969 -3.9140625 8.64648438 C-7.7734375 12.88671875 -7.7734375 12.88671875 -10 14 C-10 12.35 -10 10.7 -10 9 C-9.01 9 -8.02 9 -7 9 C-7 8.34 -7 7.68 -7 7 C-4.625 4.375 -4.625 4.375 -2 2 C-1.34 2 -0.68 2 0 2 C0 1.34 0 0.68 0 0 Z " fill="#2B769D" transform="translate(199,183)"/>
<path d="M0 0 C0 4.76583853 -2.42289263 7.31930925 -5.4375 10.875 C-6.283125 11.57625 -7.12875 12.2775 -8 13 C-9.32 12.67 -10.64 12.34 -12 12 C-8.04 8.04 -4.08 4.08 0 0 Z " fill="#C4F0F6" transform="translate(319,189)"/>
<path d="M0 0 C0.66 0.33 1.32 0.66 2 1 C1.01 2.485 1.01 2.485 0 4 C-0.99 4 -1.98 4 -3 4 C-3.226875 4.721875 -3.45375 5.44375 -3.6875 6.1875 C-5.24831013 9.53209313 -7.3031287 11.51603959 -10 14 C-10.99 13.67 -11.98 13.34 -13 13 C-11.58791833 11.39179588 -10.17013964 9.78859292 -8.75 8.1875 C-7.96109375 7.29417969 -7.1721875 6.40085938 -6.359375 5.48046875 C-4.34120555 3.35871775 -2.40083295 1.65745577 0 0 Z " fill="#CFEFF4" transform="translate(208,178)"/>
<path d="M0 0 C1.48110218 0.32462513 2.96106259 0.65477873 4.4375 1 C4.4375 1.33 4.4375 1.66 4.4375 2 C3.31601562 1.87431641 3.31601562 1.87431641 2.171875 1.74609375 C1.18703125 1.64425781 0.2021875 1.54242188 -0.8125 1.4375 C-2.27429688 1.28087891 -2.27429688 1.28087891 -3.765625 1.12109375 C-6.36526202 1.00853963 -8.08789414 1.3401051 -10.5625 2 C-12.90364367 1.72686657 -15.24000658 1.40197001 -17.5625 1 C-12.17802161 -2.58965226 -6.12338502 -1.21771861 0 0 Z " fill="#DBEBEE" transform="translate(351.5625,66)"/>
<path d="M0 0 C2.625 0.375 2.625 0.375 5 1 C5 1.66 5 2.32 5 3 C5.66 3 6.32 3 7 3 C6.67 4.32 6.34 5.64 6 7 C5.01 6.01 4.02 5.02 3 4 C2.071875 4.4640625 2.071875 4.4640625 1.125 4.9375 C-0.25 5.625 -1.625 6.3125 -3 7 C-2.25 2.25 -2.25 2.25 0 0 Z " fill="#CDF6F8" transform="translate(419,57)"/>
<path d="M0 0 C-2 2 -2 2 -4.15478516 2.22705078 C-5.02409668 2.21657715 -5.8934082 2.20610352 -6.7890625 2.1953125 C-7.73007812 2.18886719 -8.67109375 2.18242187 -9.640625 2.17578125 C-10.62546875 2.15902344 -11.6103125 2.14226563 -12.625 2.125 C-13.61757813 2.11597656 -14.61015625 2.10695313 -15.6328125 2.09765625 C-18.08878134 2.07404116 -20.54427168 2.04110799 -23 2 C-15.47023257 -1.97584703 -8.22789765 -0.87818284 0 0 Z " fill="#143F63" transform="translate(327,27)"/>
<path d="M0 0 C1.19156292 4.76625167 0.3415946 5.87879351 -2 10 C-3.32 10 -4.64 10 -6 10 C-6.33 9.01 -6.66 8.02 -7 7 C-4.69 4.69 -2.38 2.38 0 0 Z " fill="#3CB5D5" transform="translate(348,132)"/>
<path d="M0 0 C0.74056641 0.00902344 1.48113281 0.01804688 2.24414062 0.02734375 C4.05873467 0.05075787 5.87316071 0.08662385 7.6875 0.125 C7.6875 0.455 7.6875 0.785 7.6875 1.125 C6.6975 1.24617187 5.7075 1.36734375 4.6875 1.4921875 C-2.08842337 2.34442941 -8.7301114 3.24431754 -15.3125 5.125 C-11.50706505 -0.58315242 -6.38215752 -0.14828963 0 0 Z " fill="#1F749C" transform="translate(214.3125,157.875)"/>
<path d="M0 0 C2.49371754 1.15094656 4.36097107 2.29780113 6.5 4.0625 C11.00891695 7.20472451 16.69403748 6.828286 22 7 C22 7.33 22 7.66 22 8 C14.26420566 9.30825934 9.72215105 9.18549027 3 5 C3 4.34 3 3.68 3 3 C2.01 2.67 1.02 2.34 0 2 C0 1.34 0 0.68 0 0 Z " fill="#3F94BA" transform="translate(260,188)"/>
<path d="M0 0 C3.3 0.66 6.6 1.32 10 2 C7 3 7 3 4.75 3.1875 C0.66419247 4.39467041 -1.94158332 7.11786094 -5 10 C-3.33333333 6.66666667 -1.66666667 3.33333333 0 0 Z " fill="#D6E8EB" transform="translate(332,175)"/>
<path d="M0 0 C-1.56048464 4.05726008 -4.4835557 7.47623615 -8 10 C-9.32 10 -10.64 10 -12 10 C-11 8 -11 8 -8 7 C-7.855625 6.38125 -7.71125 5.7625 -7.5625 5.125 C-6.50935642 1.14645758 -3.90669438 0 0 0 Z " fill="#42B1D5" transform="translate(343,164)"/>
<path d="M0 0 C6.14587738 0.2410148 6.14587738 0.2410148 8.578125 2.40234375 C9.78844931 3.88046971 10.90220903 5.43647953 12 7 C11.34 7 10.68 7 10 7 C9.67 7.66 9.34 8.32 9 9 C7.49704815 7.69088122 5.99770689 6.37761608 4.5 5.0625 C3.6646875 4.33160156 2.829375 3.60070312 1.96875 2.84765625 C1.3190625 2.23792969 0.669375 1.62820312 0 1 C0 0.67 0 0.34 0 0 Z " fill="#EEF0F1" transform="translate(399,156)"/>
<path d="M0 0 C2.475 0.495 2.475 0.495 5 1 C5.103125 1.639375 5.20625 2.27875 5.3125 2.9375 C5.539375 3.618125 5.76625 4.29875 6 5 C6.99 5.33 7.98 5.66 9 6 C9.36923077 10.55384615 9.36923077 10.55384615 7.5 12.8125 C7.005 13.204375 6.51 13.59625 6 14 C5.34 13.67 4.68 13.34 4 13 C4.99 12.01 5.98 11.02 7 10 C5.33248852 6.05860922 2.77289351 3.2107188 0 0 Z " fill="#C6F5F8" transform="translate(426,64)"/>
<path d="M0 0 C0 0.33 0 0.66 0 1 C-0.556875 1.08636719 -1.11375 1.17273438 -1.6875 1.26171875 C-7.69593096 2.3680008 -12.04288581 4.46113374 -17 8 C-16.9375 5.6875 -16.9375 5.6875 -16 3 C-10.70089702 -0.20154138 -6.0838562 -0.37248099 0 0 Z " fill="#1E749E" transform="translate(219,175)"/>
<path d="M0 0 C0 0.66 0 1.32 0 2 C-1.32 2 -2.64 2 -4 2 C-4 2.66 -4 3.32 -4 4 C-6.31 4 -8.62 4 -11 4 C-11.33 3.01 -11.66 2.02 -12 1 C-7.93631321 0.22596442 -4.13574827 -0.0984702 0 0 Z " fill="#122034" transform="translate(359,277)"/>
<path d="M0 0 C0 3 0 3 -1.6796875 5.04296875 C-2.76636719 6.10451172 -2.76636719 6.10451172 -3.875 7.1875 C-4.95394531 8.26064453 -4.95394531 8.26064453 -6.0546875 9.35546875 C-8 11 -8 11 -10 11 C-10 10.01 -10 9.02 -10 8 C-9.01 8 -8.02 8 -7 8 C-7 6.68 -7 5.36 -7 4 C-5.5459375 3.2884375 -5.5459375 3.2884375 -4.0625 2.5625 C-1.19522563 1.29806053 -1.19522563 1.29806053 0 0 Z " fill="#0D1726" transform="translate(407,251)"/>
<path d="M0 0 C2.04119788 1.61594832 4.04072937 3.2856382 6 5 C6 5.66 6 6.32 6 7 C6.99 7.33 7.98 7.66 9 8 C9 8.33 9 8.66 9 9 C6.69 8.67 4.38 8.34 2 8 C2 6.68 2 5.36 2 4 C1.34 4 0.68 4 0 4 C0 2.68 0 1.36 0 0 Z " fill="#C6E9EF" transform="translate(228,182)"/>
<path d="M0 0 C0.99 0.66 1.98 1.32 3 2 C-0.3 5.3 -3.6 8.6 -7 12 C-7.33 11.01 -7.66 10.02 -8 9 C-7.34 9 -6.68 9 -6 9 C-5.67 7.68 -5.34 6.36 -5 5 C-4.01 5 -3.02 5 -2 5 C-2 4.01 -2 3.02 -2 2 C-1.34 2 -0.68 2 0 2 C0 1.34 0 0.68 0 0 Z " fill="#C2E0E9" transform="translate(178,178)"/>
<path d="M0 0 C1.65 0 3.3 0 5 0 C5.33 1.65 5.66 3.3 6 5 C7.32 5 8.64 5 10 5 C10.33 6.65 10.66 8.3 11 10 C9.72390677 9.09066991 8.45434447 8.17217147 7.1875 7.25 C6.47980469 6.73953125 5.77210938 6.2290625 5.04296875 5.703125 C2.97022309 3.97517642 1.52624146 2.21473524 0 0 Z " fill="#C7EDF4" transform="translate(238,165)"/>
<path d="M0 0 C8.415 2.475 8.415 2.475 17 5 C17 5.33 17 5.66 17 6 C14.72844502 5.91297874 12.45769257 5.80480478 10.1875 5.6875 C8.92292969 5.62949219 7.65835937 5.57148438 6.35546875 5.51171875 C3 5 3 5 1.05078125 3.58203125 C0 2 0 2 0 0 Z " fill="#D7E9EE" transform="translate(284,159)"/>
<path d="M0 0 C1.32 0.33 2.64 0.66 4 1 C1.03 3.97 -1.94 6.94 -5 10 C-6 7 -6 7 -4.6875 4.3125 C-4.130625 3.549375 -3.57375 2.78625 -3 2 C-2.34 2 -1.68 2 -1 2 C-0.67 1.34 -0.34 0.68 0 0 Z " fill="#D0F7FA" transform="translate(372,104)"/>
<path d="M0 0 C0.66 0 1.32 0 2 0 C0.46356148 3.68069887 -1.78150945 5.98775204 -4.625 8.75 C-5.85089844 9.94882812 -5.85089844 9.94882812 -7.1015625 11.171875 C-7.72804688 11.77515625 -8.35453125 12.3784375 -9 13 C-9.33 11.68 -9.66 10.36 -10 9 C-8.8553125 8.38125 -8.8553125 8.38125 -7.6875 7.75 C-5.04673684 6.03043329 -3.81616784 4.50804131 -2 2 C-1.34 2 -0.68 2 0 2 C0 1.34 0 0.68 0 0 Z " fill="#246089" transform="translate(134,251)"/>
<path d="M0 0 C0.56203125 0.22558594 1.1240625 0.45117188 1.703125 0.68359375 C0.713125 1.01359375 -0.276875 1.34359375 -1.296875 1.68359375 C-2.5034375 2.92109375 -2.5034375 2.92109375 -3.734375 4.18359375 C-6.13382976 6.52452523 -7.06821614 7.32485388 -10.296875 7.68359375 C-10.626875 7.02359375 -10.956875 6.36359375 -11.296875 5.68359375 C-9.89135201 4.64747104 -8.47195806 3.6301445 -7.046875 2.62109375 C-6.25796875 2.05261719 -5.4690625 1.48414063 -4.65625 0.8984375 C-2.296875 -0.31640625 -2.296875 -0.31640625 0 0 Z " fill="#2880B2" transform="translate(205.296875,161.31640625)"/>
<path d="M0 0 C6.98231561 1.16371927 10.37022306 4.8290803 15 10 C11.44577514 10 11.10684151 9.47208088 8.625 7.125 C5.8907868 4.66362761 3.5746867 3.0832384 0 2 C0 1.34 0 0.68 0 0 Z " fill="#247BA2" transform="translate(228,160)"/>
<path d="M0 0 C3.08859947 1.35335595 5.007964 2.80886249 7.1875 5.375 C7.95126953 6.25285156 7.95126953 6.25285156 8.73046875 7.1484375 C10.07559273 9.11024909 10.57514402 10.676089 11 13 C10.01 12.34 9.02 11.68 8 11 C8 10.34 8 9.68 8 9 C7.01 8.67 6.02 8.34 5 8 C3.4375 5.625 3.4375 5.625 2 3 C1.34 2.01 0.68 1.02 0 0 Z " fill="#141A2B" transform="translate(403,161)"/>
<path d="M0 0 C1.32 0.33 2.64 0.66 4 1 C1.03 3.97 -1.94 6.94 -5 10 C-5.33 8.68 -5.66 7.36 -6 6 C-2.25 3 -2.25 3 0 3 C0 2.01 0 1.02 0 0 Z " fill="#D6FAFB" transform="translate(362,114)"/>
<path d="M0 0 C3.7874305 4.77545584 4.11799367 8.13869036 4.0625 14.1875 C4.05347656 15.45980469 4.04445313 16.73210937 4.03515625 18.04296875 C4.02355469 19.01878906 4.01195312 19.99460938 4 21 C3.67 21 3.34 21 3 21 C2.67 15.72 2.34 10.44 2 5 C1.01 4.67 0.02 4.34 -1 4 C-0.67 2.68 -0.34 1.36 0 0 Z " fill="#A6AFBD" transform="translate(374,197)"/>
<path d="M0 0 C5.34844008 0.53484401 9.35796103 2.46690767 14 5 C14 5.33 14 5.66 14 6 C11.25 6.75 11.25 6.75 8 7 C5.875 5.25 5.875 5.25 4 3 C2.68441297 1.97676564 1.35622245 0.96873032 0 0 Z " fill="#101C2F" transform="translate(368,141)"/>
<path d="M0 0 C0.66 0.33 1.32 0.66 2 1 C-1.33333333 4.33333333 -4.66666667 7.66666667 -8 11 C-8.66 10.34 -9.32 9.68 -10 9 C-6.7 6.03 -3.4 3.06 0 0 Z " fill="#D6E7ED" transform="translate(252,32)"/>
<path d="M0 0 C1.77226453 0.28284018 3.542788 0.57660498 5.3125 0.875 C6.29863281 1.03742188 7.28476562 1.19984375 8.30078125 1.3671875 C11 2 11 2 14 4 C10.7 4 7.4 4 4 4 C4 3.34 4 2.68 4 2 C2.68 2 1.36 2 0 2 C0 1.34 0 0.68 0 0 Z " fill="#0D1325" transform="translate(295,239)"/>
<path d="M0 0 C0.66 0.99 1.32 1.98 2 3 C1.34 3 0.68 3 0 3 C-0.33 3.99 -0.66 4.98 -1 6 C-3.92079805 8.07530387 -5.37546731 9 -9 9 C-6.03 6.03 -3.06 3.06 0 0 Z " fill="#E8EDF2" transform="translate(136,208)"/>
<path d="M0 0 C3.37462715 0.54723683 5.08235 1.0549 8 3 C7.34 3 6.68 3 6 3 C5.67 3.99 5.34 4.98 5 6 C4.01 5.67 3.02 5.34 2 5 C2 4.34 2 3.68 2 3 C1.01 2.67 0.02 2.34 -1 2 C-0.67 1.34 -0.34 0.68 0 0 Z " fill="#254765" transform="translate(326,128)"/>
<path d="M0 0 C0.66 0 1.32 0 2 0 C1.67 1.98 1.34 3.96 1 6 C0.34 6 -0.32 6 -1 6 C-1.66 8.64 -2.32 11.28 -3 14 C-4.10084497 9.59662012 -3.7915332 8.73201586 -2.0625 4.75 C-1.68222656 3.85796875 -1.30195313 2.9659375 -0.91015625 2.046875 C-0.60980469 1.37140625 -0.30945313 0.6959375 0 0 Z " fill="#1D4261" transform="translate(248,65)"/>
<path d="M0 0 C3.625 -0.1875 3.625 -0.1875 7 0 C7.66 1.32 8.32 2.64 9 4 C5.37 3.67 1.74 3.34 -2 3 C-1.34 2.01 -0.68 1.02 0 0 Z " fill="#2A89BA" transform="translate(214,172)"/>
<path d="M0 0 C5.70709064 0.46588495 9.15939723 1.93757784 14 5 C10.40922594 6.19692469 9.75687727 5.73508446 6.4375 4.1875 C5.65246094 3.83042969 4.86742187 3.47335938 4.05859375 3.10546875 C2 2 2 2 0 0 Z " fill="#1B4463" transform="translate(360,68)"/>
<path d="M0 0 C1.32 0.33 2.64 0.66 4 1 C1.69 3.64 -0.62 6.28 -3 9 C-4 5 -4 5 -3 3 C-2.34 3 -1.68 3 -1 3 C-0.67 2.01 -0.34 1.02 0 0 Z " fill="#CEE2E8" transform="translate(256,50)"/>
<path d="M0 0 C2.475 0.99 2.475 0.99 5 2 C4.38125 2.04125 3.7625 2.0825 3.125 2.125 C2.42375 2.41375 1.7225 2.7025 1 3 C-0.3045656 5.99615946 -0.3045656 5.99615946 -1 9 C-1.99 8.67 -2.98 8.34 -4 8 C-2.68 5.36 -1.36 2.72 0 0 Z " fill="#0F1728" transform="translate(251,221)"/>
<path d="M0 0 C1.79240663 0.11389875 3.58394835 0.24147687 5.375 0.375 C6.87160156 0.47941406 6.87160156 0.47941406 8.3984375 0.5859375 C11 1 11 1 13 3 C12.34 3 11.68 3 11 3 C10.67 3.66 10.34 4.32 10 5 C5.05 3.02 5.05 3.02 0 1 C0 0.67 0 0.34 0 0 Z " fill="#CCEDF2" transform="translate(225,158)"/>
<path d="M0 0 C0 0.33 0 0.66 0 1 C1.65 1.33 3.3 1.66 5 2 C5 2.33 5 2.66 5 3 C3.25034642 3.05429959 1.50020213 3.09292823 -0.25 3.125 C-1.22453125 3.14820313 -2.1990625 3.17140625 -3.203125 3.1953125 C-6.0196498 2.99862781 -7.60949036 2.44568916 -10 1 C-6.61981469 -0.04005702 -3.5219721 -0.08004482 0 0 Z " fill="#414F61" transform="translate(318,280)"/>
<path d="M0 0 C1.70884005 1.62339805 3.37446717 3.29319053 5 5 C5 5.66 5 6.32 5 7 C3.68 7 2.36 7 1 7 C-1 4 -1 4 -0.625 1.8125 C-0.41875 1.214375 -0.2125 0.61625 0 0 Z " fill="#153350" transform="translate(407,167)"/>
<path d="M0 0 C-0.33 1.32 -0.66 2.64 -1 4 C-1.66 4 -2.32 4 -3 4 C-3.66 5.32 -4.32 6.64 -5 8 C-5.66 7.01 -6.32 6.02 -7 5 C-2.25 0 -2.25 0 0 0 Z " fill="#34B8D9" transform="translate(402,80)"/>
<path d="M0 0 C0.66 0 1.32 0 2 0 C3.23076923 5.41538462 3.23076923 5.41538462 2.0625 8.375 C1.711875 8.91125 1.36125 9.4475 1 10 C0.34 9.67 -0.32 9.34 -1 9 C-0.67 6.03 -0.34 3.06 0 0 Z " fill="#21587B" transform="translate(225,56)"/>
<path d="M0 0 C0.33 1.32 0.66 2.64 1 4 C-0.98 5.32 -2.96 6.64 -5 8 C-5.66 7.67 -6.32 7.34 -7 7 C-4.69 4.69 -2.38 2.38 0 0 Z " fill="#C6E6ED" transform="translate(182,204)"/>
<path d="M0 0 C2.97 0.33 5.94 0.66 9 1 C9 1.66 9 2.32 9 3 C9.99 3.33 10.98 3.66 12 4 C7.6822542 3.49202991 3.96697886 2.80317221 0 1 C0 0.67 0 0.34 0 0 Z " fill="#0B101E" transform="translate(277,273)"/>
<path d="M0 0 C0.33 0.66 0.66 1.32 1 2 C-1.40983607 6.70491803 -1.40983607 6.70491803 -4 8 C-4.66 7.34 -5.32 6.68 -6 6 C-4.02 4.02 -2.04 2.04 0 0 Z " fill="#CFEFF3" transform="translate(189,197)"/>
<path d="M0 0 C0.33 0.66 0.66 1.32 1 2 C-0.125 4.5625 -0.125 4.5625 -2 7 C-4.6875 7.8125 -4.6875 7.8125 -7 8 C-6.67 7.34 -6.34 6.68 -6 6 C-5.34 6 -4.68 6 -4 6 C-3.71125 5.38125 -3.4225 4.7625 -3.125 4.125 C-2 2 -2 2 0 0 Z " fill="#D1DEE6" transform="translate(158,185)"/>
<path d="M0 0 C1.32 0.66 2.64 1.32 4 2 C4 2.99 4 3.98 4 5 C2.68 5 1.36 5 0 5 C0 4.34 0 3.68 0 3 C-0.66 2.67 -1.32 2.34 -2 2 C-1.34 1.34 -0.68 0.68 0 0 Z " fill="#30C4E8" transform="translate(420,62)"/>
<path d="M0 0 C0.33 0.99 0.66 1.98 1 3 C-2 5 -2 5 -6 5 C-4.87312259 1.61936778 -3.78825335 0 0 0 Z " fill="#212C3E" transform="translate(385,268)"/>
<path d="M0 0 C0.99 0.33 1.98 0.66 3 1 C-0.465 3.97 -0.465 3.97 -4 7 C-4.33 5.68 -4.66 4.36 -5 3 C-3.35 2.67 -1.7 2.34 0 2 C0 1.34 0 0.68 0 0 Z " fill="#E5F8FB" transform="translate(150,207)"/>
<path d="M0 0 C-0.3125 1.875 -0.3125 1.875 -1 4 C-1.99 4.66 -2.98 5.32 -4 6 C-4.66 5.67 -5.32 5.34 -6 5 C-6 4.34 -6 3.68 -6 3 C-5.34 3 -4.68 3 -4 3 C-4 2.34 -4 1.68 -4 1 C-2 0 -2 0 0 0 Z " fill="#1F2E41" transform="translate(137,205)"/>
<path d="M0 0 C1.32 0.33 2.64 0.66 4 1 C-1.75 6 -1.75 6 -4 6 C-4 5.34 -4 4.68 -4 4 C-3.34 4 -2.68 4 -2 4 C-1.34 2.68 -0.68 1.36 0 0 Z " fill="#D1F6FB" transform="translate(290,187)"/>
<path d="M0 0 C0.66 0 1.32 0 2 0 C0.50902342 3.7952131 -1.75700849 5.61042731 -5 8 C-5 4 -5 4 -3 2 C-2.01 2 -1.02 2 0 2 C0 1.34 0 0.68 0 0 Z " fill="#B5ECF3" transform="translate(339,139)"/>
<path d="M0 0 C5.78461538 4.18461538 5.78461538 4.18461538 6.875 8.3125 C6.936875 9.6428125 6.936875 9.6428125 7 11 C3.17330957 7.57611908 1.27721526 4.99275057 0 0 Z " fill="#14375A" transform="translate(247,125)"/>
<path d="M0 0 C0 2.97 0 5.94 0 9 C-0.66 9 -1.32 9 -2 9 C-2.59732819 6.23735711 -3 3.83967231 -3 1 C-1 0 -1 0 0 0 Z " fill="#295B7D" transform="translate(253,62)"/>
<path d="M0 0 C0.66 0.33 1.32 0.66 2 1 C0.52307692 5.67692308 0.52307692 5.67692308 -2.125 7.3125 C-3.053125 7.6528125 -3.053125 7.6528125 -4 8 C-2.87548273 5.0280615 -1.77706209 2.66559313 0 0 Z " fill="#1E4665" transform="translate(254,56)"/>
<path d="M0 0 C2.31 0.33 4.62 0.66 7 1 C3.93753253 2.78409802 1.77920727 3.22880021 -1.75 3.125 C-2.54921875 3.10695313 -3.3484375 3.08890625 -4.171875 3.0703125 C-4.77515625 3.04710937 -5.3784375 3.02390625 -6 3 C-6 2.67 -6 2.34 -6 2 C-4.02 1.67 -2.04 1.34 0 1 C0 0.67 0 0.34 0 0 Z " fill="#3D4B5C" transform="translate(344,280)"/>
<path d="M0 0 C2.64 0 5.28 0 8 0 C8 0.66 8 1.32 8 2 C4.71303767 2.79953138 3.28976808 3.09658936 0 2 C0 1.34 0 0.68 0 0 Z " fill="#0F1D39" transform="translate(371,272)"/>
<path d="M0 0 C0.66 0.33 1.32 0.66 2 1 C1.39816251 3.02045442 0.72693904 5.02111039 0 7 C-0.99 7.495 -0.99 7.495 -2 8 C-2.66 7.67 -3.32 7.34 -4 7 C-4 6.34 -4 5.68 -4 5 C-3.01 4.34 -2.02 3.68 -1 3 C-0.67 2.01 -0.34 1.02 0 0 Z " fill="#38A3C8" transform="translate(326,176)"/>
<path d="M0 0 C1.65 0.33 3.3 0.66 5 1 C4.67 2.32 4.34 3.64 4 5 C2.02 4.34 0.04 3.68 -2 3 C-1.34 2.67 -0.68 2.34 0 2 C0 1.34 0 0.68 0 0 Z " fill="#DEE2E5" transform="translate(386,145)"/>
<path d="M0 0 C0.33 0 0.66 0 1 0 C1.33 4.29 1.66 8.58 2 13 C1.01 13.33 0.02 13.66 -1 14 C-0.67 9.38 -0.34 4.76 0 0 Z " fill="#345C7A" transform="translate(285,91)"/>
<path d="M0 0 C-0.66 0 -1.32 0 -2 0 C-2.33 0.99 -2.66 1.98 -3 3 C-4.98 3 -6.96 3 -9 3 C-5.83583464 -0.30799106 -4.50236011 -1.35070803 0 0 Z " fill="#C7DDE4" transform="translate(308,69)"/>
<path d="M0 0 C2.0625 0.4375 2.0625 0.4375 4 1 C1.03 3.475 1.03 3.475 -2 6 C-1.125 1.125 -1.125 1.125 0 0 Z " fill="#BBECF3" transform="translate(330,147)"/>
<path d="M0 0 C0.66 0.33 1.32 0.66 2 1 C-0.40436026 4.60654039 -1.94679607 4.85452932 -6 6 C-5 3 -5 3 -2.5625 1.25 C-1.716875 0.8375 -0.87125 0.425 0 0 Z " fill="#101520" transform="translate(366,234)"/>
<path d="M0 0 C2.97 0.495 2.97 0.495 6 1 C5.67 1.99 5.34 2.98 5 4 C3.35 3.67 1.7 3.34 0 3 C0 2.01 0 1.02 0 0 Z " fill="#449BBC" transform="translate(263,210)"/>
<path d="M0 0 C0 3.51716303 -0.82445585 4.37121748 -3 7 C-4.32 6.67 -5.64 6.34 -7 6 C-4.69 4.02 -2.38 2.04 0 0 Z " fill="#BCF0F7" transform="translate(306,202)"/>
<path d="M0 0 C2.46800047 1.15173355 4.04783565 2.04783565 6 4 C5.67 4.99 5.34 5.98 5 7 C3.29115995 5.37660195 1.62553283 3.70680947 0 2 C0 1.34 0 0.68 0 0 Z " fill="#2F86AF" transform="translate(247,175)"/>
<path d="M0 0 C0.33 1.32 0.66 2.64 1 4 C-0.65 5.32 -2.3 6.64 -4 8 C-4 6.68 -4 5.36 -4 4 C-3.01 4 -2.02 4 -1 4 C-0.67 2.68 -0.34 1.36 0 0 Z " fill="#D4F7FA" transform="translate(315,162)"/>
<path d="M0 0 C5.75 1.75 5.75 1.75 8 4 C7.67 4.99 7.34 5.98 7 7 C5.83040013 6.02433888 4.66438823 5.044375 3.5 4.0625 C2.8503125 3.51722656 2.200625 2.97195312 1.53125 2.41015625 C1.0259375 1.94480469 0.520625 1.47945312 0 1 C0 0.67 0 0.34 0 0 Z " fill="#D6DFE6" transform="translate(399,156)"/>
<path d="M0 0 C2.64 0 5.28 0 8 0 C8.33 0.66 8.66 1.32 9 2 C6.21176345 3.0326802 5.1322726 3.04509293 2.25 2.0625 C1.5075 1.711875 0.765 1.36125 0 1 C0 0.67 0 0.34 0 0 Z " fill="#34627E" transform="translate(283,158)"/>
<path d="M0 0 C0.66 0.33 1.32 0.66 2 1 C1.34 2.65 0.68 4.3 0 6 C-3 4 -3 4 -4 2 C-2.125 0.9375 -2.125 0.9375 0 0 Z " fill="#41BAD9" transform="translate(373,130)"/>
<path d="M0 0 C0 0.99 0 1.98 0 3 C-1.98 3.33 -3.96 3.66 -6 4 C-6 3.34 -6 2.68 -6 2 C-3 0 -3 0 0 0 Z " fill="#34B9DE" transform="translate(381,124)"/>
<path d="M0 0 C1.98 0.495 1.98 0.495 4 1 C2.35 2.65 0.7 4.3 -1 6 C-0.67 4.02 -0.34 2.04 0 0 Z " fill="#DAE9ED" transform="translate(262,43)"/>
</svg>
