<?xml version="1.0" standalone="no"?>
<!DOCTYPE svg PUBLIC "-//W3C//DTD SVG 20010904//EN"
 "http://www.w3.org/TR/2001/REC-SVG-20010904/DTD/svg10.dtd">
<svg version="1.0" xmlns="http://www.w3.org/2000/svg"
 width="477.000000pt" height="305.000000pt" viewBox="0 0 477.000000 305.000000"
 preserveAspectRatio="xMidYMid meet">
<g transform="translate(0.000000,305.000000) scale(0.100000,-0.100000)"
fill="#000000" stroke="none">
<path d="M3210 2795 c-8 -2 -55 -9 -105 -15 -110 -15 -249 -59 -332 -106 -239
-134 -363 -338 -363 -598 0 -274 125 -460 395 -591 61 -29 128 -60 151 -68
l41 -16 172 174 173 174 -44 11 c-236 65 -373 141 -417 233 -31 63 -29 162 4
226 108 214 495 256 832 90 45 -22 86 -46 92 -53 8 -9 47 24 156 133 l145 146
-22 18 c-29 23 -139 87 -203 120 -75 37 -222 84 -322 102 -82 15 -320 29 -353
20z m368 -40 c92 -18 234 -63 243 -77 3 -5 9 -9 13 -9 20 3 26 0 20 -11 -4 -7
-3 -8 4 -4 13 8 102 -32 102 -45 0 -5 4 -8 8 -7 10 3 112 -64 112 -73 0 -7
-186 -189 -193 -189 -4 0 -4 8 0 18 3 9 2 14 -2 9 -5 -4 -9 -17 -10 -30 -2
-13 -8 -21 -16 -19 -8 2 -25 6 -39 9 -24 4 -24 4 -5 -11 14 -11 16 -15 6 -16
-8 0 -11 -3 -8 -6 4 -4 13 -1 22 6 8 7 15 8 15 2 0 -5 -6 -15 -14 -21 -11 -9
-23 -6 -58 14 -52 31 -121 63 -154 71 -13 3 -22 9 -20 13 3 4 -3 7 -12 8 -9 0
-63 10 -120 22 -156 32 -305 24 -410 -20 -24 -10 -40 -15 -37 -10 3 5 0 13 -6
17 -8 4 -9 3 -5 -4 4 -6 -3 -19 -16 -29 -68 -53 -129 -123 -143 -162 -29 -83
-12 -209 35 -259 24 -26 26 -36 4 -28 -9 4 -1 -8 17 -26 32 -30 66 -47 53 -27
-3 5 -8 7 -12 5 -4 -2 -15 7 -25 20 -10 13 -13 24 -8 24 5 0 12 -4 15 -9 15
-24 152 -91 246 -120 58 -18 111 -35 119 -37 12 -4 10 -10 -7 -27 -18 -17 -25
-19 -31 -9 -6 10 -10 10 -21 -3 -11 -13 -10 -15 4 -9 28 11 18 -7 -41 -67 -53
-55 -93 -82 -62 -41 13 16 0 8 -41 -27 -3 -2 3 -1 13 2 31 11 18 -7 -50 -74
-65 -63 -69 -65 -100 -56 -38 11 -45 30 -8 21 14 -3 25 -2 25 2 0 12 -54 14
-61 3 -3 -5 -14 -6 -24 -3 -18 7 -18 8 1 16 14 6 12 7 -11 4 -26 -4 -28 -3
-12 9 16 11 16 13 2 19 -9 3 -14 2 -11 -3 7 -10 -19 -23 -28 -13 -4 3 -13 7
-22 8 -25 4 -147 80 -189 119 -32 29 -37 38 -25 45 15 9 33 3 26 -9 -3 -4 -1
-13 4 -20 5 -9 7 -3 7 17 -2 30 -9 33 -48 17 -12 -4 -26 7 -51 42 -42 57 -82
133 -74 141 3 3 1 11 -4 17 -14 17 -40 156 -40 213 0 78 20 174 36 168 7 -3
16 -1 19 5 4 5 1 8 -7 7 -22 -5 -11 42 32 127 38 76 100 155 121 155 6 0 7 -5
3 -12 -4 -7 -3 -8 4 -4 6 4 9 13 6 20 -3 8 11 26 33 43 49 38 93 65 93 58 0
-3 10 3 21 14 12 11 34 23 50 26 15 4 46 15 68 26 22 10 45 19 51 19 6 0 33 7
61 16 27 9 58 14 69 11 11 -3 18 -2 15 3 -2 4 19 8 47 9 28 0 54 4 57 7 11 11
293 -4 379 -21z"/>
<path d="M3368 2753 c6 -2 18 -2 25 0 6 3 1 5 -13 5 -14 0 -19 -2 -12 -5z"/>
<path d="M3718 2698 c5 -5 16 -8 23 -6 8 3 3 7 -10 11 -17 4 -21 3 -13 -5z"/>
<path d="M2908 2683 c7 -3 16 -2 19 1 4 3 -2 6 -13 5 -11 0 -14 -3 -6 -6z"/>
<path d="M3769 2688 c-5 -18 -6 -38 -1 -34 7 8 12 36 6 36 -2 0 -4 -1 -5 -2z"/>
<path d="M2942 2671 c-11 -7 -11 -9 0 -14 9 -3 15 1 15 9 0 8 -1 14 -1 14 -1
0 -7 -4 -14 -9z"/>
<path d="M2780 2631 c0 -6 4 -13 10 -16 6 -3 7 1 4 9 -7 18 -14 21 -14 7z"/>
<path d="M3935 2580 c-3 -6 1 -7 9 -4 18 7 21 14 7 14 -6 0 -13 -4 -16 -10z"/>
<path d="M4036 2532 c-2 -4 4 -9 15 -9 11 -1 17 2 14 8 -7 11 -22 12 -29 1z"/>
<path d="M2596 2502 c-3 -5 1 -9 9 -9 8 0 12 4 9 9 -3 4 -7 8 -9 8 -2 0 -6 -4
-9 -8z"/>
<path d="M4008 2488 c-10 -10 -14 -18 -9 -18 10 0 36 29 30 34 -2 1 -12 -6
-21 -16z"/>
<path d="M3128 2453 c7 -3 16 -2 19 1 4 3 -2 6 -13 5 -11 0 -14 -3 -6 -6z"/>
<path d="M3930 2437 c0 -10 8 -17 18 -17 9 0 13 4 7 8 -5 4 -13 11 -17 16 -5
5 -8 2 -8 -7z"/>
<path d="M3968 2443 c7 -3 16 -2 19 1 4 3 -2 6 -13 5 -11 0 -14 -3 -6 -6z"/>
<path d="M2965 2381 c-3 -5 -2 -12 3 -15 5 -3 9 1 9 9 0 17 -3 19 -12 6z"/>
<path d="M3859 2373 c-13 -16 -12 -17 4 -4 9 7 17 15 17 17 0 8 -8 3 -21 -13z"/>
<path d="M3688 2363 c7 -3 16 -2 19 1 4 3 -2 6 -13 5 -11 0 -14 -3 -6 -6z"/>
<path d="M3728 2353 c7 -3 16 -2 19 1 4 3 -2 6 -13 5 -11 0 -14 -3 -6 -6z"/>
<path d="M2845 2240 c-3 -5 -1 -10 4 -10 6 0 11 5 11 10 0 6 -2 10 -4 10 -3 0
-8 -4 -11 -10z"/>
<path d="M2451 2214 c0 -11 3 -14 6 -6 3 7 2 16 -1 19 -3 4 -6 -2 -5 -13z"/>
<path d="M2811 2104 c0 -11 3 -14 6 -6 3 7 2 16 -1 19 -3 4 -6 -2 -5 -13z"/>
<path d="M2811 2017 c-13 -21 -12 -21 5 -5 10 10 16 20 13 22 -3 3 -11 -5 -18
-17z"/>
<path d="M2444 1999 c-3 -6 -2 -15 3 -20 5 -5 9 -1 9 11 0 23 -2 24 -12 9z"/>
<path d="M2836 1943 c-6 -14 -5 -15 5 -6 7 7 10 15 7 18 -3 3 -9 -2 -12 -12z"/>
<path d="M2450 1928 c0 -4 4 -8 9 -8 6 0 12 4 15 8 3 5 -1 9 -9 9 -8 0 -15 -4
-15 -9z"/>
<path d="M3023 1813 c9 -2 23 -2 30 0 6 3 -1 5 -18 5 -16 0 -22 -2 -12 -5z"/>
<path d="M3073 1787 c0 -7 9 -13 19 -13 10 0 18 1 18 3 0 1 -8 7 -18 12 -13 7
-19 6 -19 -2z"/>
<path d="M2522 1763 c9 -10 14 -23 11 -29 -2 -6 7 -19 19 -30 l23 -19 -17 21
c-21 24 -23 38 -5 28 6 -4 1 5 -12 19 -27 30 -43 38 -19 10z"/>
<path d="M3203 1685 c0 -8 4 -12 9 -9 5 3 6 10 3 15 -9 13 -12 11 -12 -6z"/>
<path d="M2575 1680 c-3 -6 1 -7 9 -4 18 7 21 14 7 14 -6 0 -13 -4 -16 -10z"/>
<path d="M3174 1636 c-10 -8 -17 -17 -14 -19 3 -3 14 1 24 9 11 7 17 16 15 19
-3 3 -14 -2 -25 -9z"/>
<path d="M2690 1581 c0 -9 30 -24 36 -18 2 1 -6 8 -16 15 -11 7 -20 8 -20 3z"/>
<path d="M2780 1536 c0 -2 8 -10 18 -17 15 -13 16 -12 3 4 -13 16 -21 21 -21
13z"/>
<path d="M3050 1531 c0 -6 4 -13 10 -16 6 -3 7 1 4 9 -7 18 -14 21 -14 7z"/>
<path d="M2996 1453 c-6 -14 -5 -15 5 -6 7 7 10 15 7 18 -3 3 -9 -2 -12 -12z"/>
<path d="M430 2558 l0 -198 390 0 390 0 -2 -775 c-2 -426 -1 -775 2 -774 3 1
105 106 228 234 l223 233 -1 541 0 541 304 0 304 0 7 33 c9 39 63 134 118 206
37 48 112 116 163 148 15 9 -235 11 -1053 10 l-1073 -2 0 -197z m990 -630 l5
-803 3 805 2 805 535 0 c294 0 535 -1 535 -3 0 -1 -15 -16 -32 -32 -22 -19
-40 -27 -53 -24 -15 4 -17 3 -6 -5 12 -8 12 -12 2 -25 -7 -9 -18 -13 -24 -9
-6 3 -7 1 -3 -5 4 -7 -11 -35 -33 -64 -22 -30 -54 -84 -71 -121 l-32 -68 -299
3 -298 3 -1 -550 0 -550 -82 -82 c-84 -84 -102 -97 -92 -66 5 14 4 15 -4 4 -5
-7 -7 -22 -4 -34 4 -16 2 -19 -11 -14 -10 4 -14 2 -11 -6 2 -7 -10 -21 -26
-31 -17 -10 -29 -20 -27 -22 8 -9 -76 -84 -86 -77 -6 4 -7 1 -2 -7 6 -10 4
-12 -10 -6 -16 6 -16 4 -4 -11 12 -15 12 -16 -4 -10 -10 4 -16 3 -13 -1 3 -5
-8 -24 -25 -43 l-29 -34 2 767 c2 421 1 766 -2 766 -3 0 -177 0 -387 1 l-381
1 -2 174 c-1 157 1 175 16 178 10 2 227 2 483 1 l466 -1 5 -804z"/>
<path d="M2413 2704 c0 -7 6 -10 14 -7 7 3 13 8 13 12 0 4 -6 8 -13 8 -8 0
-14 -6 -14 -13z"/>
<path d="M2324 2599 c-4 -7 -3 -9 4 -5 5 3 13 0 15 -6 4 -9 6 -10 6 -1 1 17
-16 25 -25 12z"/>
<path d="M1048 2403 c7 -3 16 -2 19 1 4 3 -2 6 -13 5 -11 0 -14 -3 -6 -6z"/>
<path d="M1633 2135 c0 -22 2 -30 4 -17 2 12 2 30 0 40 -3 9 -5 -1 -4 -23z"/>
<path d="M1633 2050 c0 -25 2 -35 4 -22 2 12 2 32 0 45 -2 12 -4 2 -4 -23z"/>
<path d="M1631 1894 c0 -11 3 -14 6 -6 3 7 2 16 -1 19 -3 4 -6 -2 -5 -13z"/>
<path d="M1632 1790 c0 -14 2 -19 5 -12 2 6 2 18 0 25 -3 6 -5 1 -5 -13z"/>
<path d="M1633 1650 c0 -25 2 -35 4 -22 2 12 2 32 0 45 -2 12 -4 2 -4 -23z"/>
<path d="M1526 1195 c-11 -8 -15 -15 -9 -15 6 0 16 7 23 15 16 19 11 19 -14 0z"/>
<path d="M1421 1108 c0 -9 -4 -25 -7 -35 -5 -14 -4 -15 5 -7 7 7 11 22 8 35
-2 13 -5 16 -6 7z"/>
<path d="M1360 1019 c0 -5 5 -7 10 -4 6 3 10 8 10 11 0 2 -4 4 -10 4 -5 0 -10
-5 -10 -11z"/>
<path d="M2560 2710 c0 -5 5 -10 11 -10 5 0 7 5 4 10 -3 6 -8 10 -11 10 -2 0
-4 -4 -4 -10z"/>
<path d="M2446 2605 c-9 -26 -7 -32 5 -12 6 10 9 21 6 23 -2 3 -7 -2 -11 -11z"/>
<path d="M4198 2451 c-1 -5 -293 -302 -648 -661 -398 -402 -660 -660 -685
-673 -57 -30 -145 -27 -194 7 -20 14 -99 87 -176 162 -154 150 -201 180 -302
190 -122 13 -213 -35 -358 -188 -44 -47 -203 -211 -353 -364 l-273 -280 -2
-192 -2 -192 230 0 230 0 0 288 c0 173 4 294 10 304 6 9 97 105 203 213 191
194 230 225 289 225 45 0 85 -31 231 -178 114 -115 148 -144 204 -170 79 -37
171 -49 246 -33 104 22 139 47 316 221 l168 167 37 -8 c123 -28 272 -100 333
-160 58 -58 83 -132 75 -220 -6 -70 -26 -114 -78 -167 -113 -118 -355 -163
-601 -113 -108 23 -167 44 -293 105 -49 24 -124 51 -165 61 -41 9 -85 26 -96
37 l-21 19 -68 -113 c-37 -62 -76 -127 -87 -145 l-19 -32 83 -66 c94 -75 256
-159 394 -204 211 -68 489 -89 706 -52 221 38 366 108 499 241 143 142 188
248 196 459 6 151 -3 210 -48 309 -66 148 -166 240 -365 338 l-131 65 -168
-170 c-93 -94 -175 -171 -182 -171 -8 0 -48 -35 -89 -77 -60 -63 -76 -75 -84
-63 -7 11 -10 11 -10 2 0 -7 -5 -10 -12 -6 -7 4 -8 3 -4 -5 4 -6 12 -8 18 -5
6 4 8 1 6 -7 -3 -8 -11 -13 -18 -11 -7 2 -20 -4 -30 -13 -9 -8 -20 -13 -23
-10 -4 3 -5 2 -2 -2 3 -4 -9 -23 -27 -42 l-33 -36 35 33 c46 41 63 42 24 1
-52 -56 -143 -117 -198 -133 -65 -19 -179 -21 -198 -3 -7 6 -26 13 -43 15 -50
5 -194 110 -181 131 4 7 1 8 -8 5 -20 -8 -21 10 -2 25 11 9 15 9 19 -1 4 -9 6
-9 6 -1 2 20 -16 24 -32 8 -13 -12 -17 -12 -26 -1 -7 8 -8 16 -4 18 4 3 2 3
-6 1 -13 -3 -58 45 -54 59 2 4 -3 5 -10 3 -6 -2 -24 12 -39 32 -23 30 -26 39
-15 52 10 14 10 14 -4 4 -13 -11 -22 -10 -47 3 -55 27 -95 28 -142 4 -30 -15
-45 -19 -53 -11 -6 6 -16 11 -21 11 -6 0 -3 -5 7 -11 9 -5 17 -15 17 -20 0 -6
-4 -7 -10 -4 -5 3 -10 2 -10 -3 0 -5 -66 -77 -147 -161 -107 -111 -149 -148
-156 -139 -6 10 -8 9 -4 -3 8 -24 -55 -83 -71 -67 -8 8 -12 9 -12 1 0 -6 5
-13 11 -15 30 -10 -30 -79 -344 -395 -44 -45 -78 -85 -75 -88 3 -3 52 40 109
97 56 57 107 102 112 100 4 -1 5 2 2 9 -6 9 29 43 45 44 12 1 30 17 25 24 -2
5 25 38 60 75 l65 67 0 -260 0 -261 -215 0 -215 0 0 178 c0 163 2 180 19 196
11 10 22 13 25 8 3 -6 0 -13 -6 -15 -8 -4 -9 -6 -2 -6 6 -1 18 7 25 16 8 10 9
14 2 10 -6 -4 -14 -4 -17 1 -3 5 16 30 43 56 28 28 48 41 48 32 0 -8 -4 -13
-9 -10 -4 3 -8 0 -8 -6 0 -7 6 -10 13 -7 6 2 12 13 12 25 0 33 19 46 39 27 9
-9 16 -11 16 -5 0 6 -7 13 -16 17 -13 5 -12 9 7 29 11 12 27 20 34 18 7 -3 16
-1 20 5 4 7 -1 8 -12 4 -16 -6 -16 -5 -4 10 7 9 17 14 22 11 5 -3 6 2 3 10 -6
14 5 21 28 17 4 0 4 7 1 16 -5 12 -2 15 10 10 11 -4 14 -2 10 9 -3 7 -1 14 5
14 6 0 12 -5 14 -12 3 -7 7 -5 11 6 4 10 3 15 -3 11 -16 -10 -12 11 5 25 8 6
19 9 25 5 6 -4 9 -1 8 6 -2 7 2 13 9 14 6 0 15 4 20 9 5 5 3 6 -4 2 -19 -11
-16 1 9 29 12 14 28 23 36 20 7 -3 10 0 7 6 -9 14 127 151 139 139 8 -8 46 28
46 45 0 4 -9 -3 -19 -16 -11 -13 -23 -21 -27 -17 -10 10 103 121 116 113 5 -3
7 0 5 7 -7 18 49 60 69 52 21 -8 10 -25 -12 -18 -14 5 -15 4 -2 -5 10 -7 19
-6 31 5 18 17 33 19 23 3 -4 -8 0 -8 15 0 28 15 27 18 -9 16 -80 -5 -44 36 49
56 106 22 212 -6 290 -78 79 -72 201 -191 201 -196 0 -3 -10 -3 -22 -1 -23 5
-23 5 0 -6 13 -5 21 -14 17 -19 -3 -5 -1 -12 4 -16 6 -3 8 3 6 15 -3 16 6 12
52 -22 49 -37 63 -43 118 -46 86 -6 126 10 197 78 35 33 66 56 74 53 8 -3 14
0 14 7 0 6 -4 8 -10 5 -22 -13 -8 10 27 46 20 21 41 35 46 32 6 -3 7 -2 4 4
-4 5 4 19 16 30 12 11 100 99 196 197 125 127 177 173 186 166 14 -11 39 5 48
33 6 15 4 16 -13 7 -28 -15 -25 -2 6 26 27 26 43 32 25 10 -9 -10 -8 -15 2
-19 10 -4 13 2 11 23 -3 28 29 70 43 57 4 -4 -2 -14 -13 -23 -18 -15 -18 -15
3 -4 12 5 25 15 28 21 5 6 12 3 21 -8 13 -16 13 -15 3 9 -10 22 -15 25 -26 17
-33 -28 -8 8 44 62 58 61 77 72 67 42 -5 -15 -4 -15 4 -3 6 8 8 18 6 22 -8 12
128 148 139 141 6 -3 7 -1 4 4 -10 16 18 34 39 27 16 -6 17 -4 7 6 -11 11 12
38 120 147 117 118 164 158 141 121 -4 -6 -3 -8 3 -5 15 10 36 -20 29 -39 -5
-13 -4 -14 7 -6 11 9 20 5 42 -18 l29 -30 -29 -30 c-15 -16 -33 -27 -38 -23
-6 3 -7 1 -4 -4 4 -6 1 -16 -7 -22 -8 -7 -16 -8 -18 -4 -3 4 -4 3 -2 -3 1 -7
-8 -22 -21 -34 l-23 -22 -7 22 c-4 12 -9 19 -12 17 -2 -3 0 -14 6 -25 8 -16 4
-25 -28 -56 -21 -21 -41 -34 -43 -29 -3 4 -3 3 -2 -4 4 -15 -20 -35 -30 -25
-4 4 -6 2 -4 -4 4 -14 -131 -155 -152 -159 -8 -1 -14 -7 -13 -12 1 -5 -32 -43
-73 -84 -41 -40 -74 -68 -74 -61 0 10 -4 10 -20 0 -11 -7 -20 -17 -20 -22 0
-6 5 -5 12 2 7 7 17 12 22 12 6 0 -7 -18 -29 -40 -21 -22 -36 -43 -32 -46 4
-4 155 142 335 323 l328 331 -69 71 c-74 76 -74 76 -79 62z m-658 -732 c0 -11
-29 -19 -34 -10 -3 5 -3 10 -1 13 8 7 35 5 35 -3z m242 -134 c51 -24 107 -52
123 -62 17 -10 32 -19 34 -20 2 -2 -2 -11 -10 -20 -11 -15 -11 -16 1 -5 20 17
33 15 25 -5 -5 -14 -4 -15 6 -6 27 27 174 -130 163 -174 -3 -11 -1 -24 4 -27
6 -4 8 3 5 16 -4 22 -4 23 11 4 15 -18 20 -38 17 -58 0 -5 4 -8 10 -8 8 0 7
-5 -1 -15 -11 -13 -10 -14 4 -9 9 3 16 1 16 -5 0 -6 -4 -11 -10 -11 -5 0 -10
-4 -10 -10 0 -5 6 -7 13 -4 8 3 14 -1 15 -8 0 -7 5 -47 10 -88 14 -113 -3
-296 -31 -325 -6 -6 -7 -1 -3 15 6 21 5 22 -4 7 -8 -12 -8 -22 -1 -30 7 -9 3
-29 -16 -67 -14 -30 -31 -58 -37 -62 -6 -4 -11 -11 -11 -15 -1 -13 -29 -53
-37 -53 -5 0 -7 4 -5 9 1 5 -2 8 -8 8 -5 -1 -10 -8 -11 -15 -1 -6 2 -10 7 -6
15 9 10 -13 -6 -26 -8 -6 -19 -9 -26 -5 -8 6 -7 10 2 16 8 5 9 9 3 9 -18 0
-24 -13 -12 -27 9 -11 4 -21 -23 -46 -49 -45 -128 -97 -148 -97 -9 0 1 11 23
24 34 21 35 24 13 23 -14 -1 -23 -5 -21 -9 3 -4 -5 -12 -16 -18 -11 -6 -18
-15 -15 -19 2 -5 -2 -15 -11 -22 -14 -11 -18 -10 -31 6 -14 20 -15 20 -11 0 3
-21 -37 -46 -78 -49 -13 0 -24 -4 -24 -7 0 -3 -44 -14 -97 -25 -145 -28 -438
-26 -583 5 -58 12 -116 24 -129 27 -14 3 -29 8 -35 12 -6 4 -13 7 -16 7 -13 2
-86 29 -95 35 -5 4 -21 11 -35 15 -26 8 -180 95 -180 102 0 2 4 2 9 -1 4 -3
17 1 27 10 18 15 18 15 -1 6 -39 -17 -60 -9 -59 21 1 29 -10 36 -20 11 -4 -10
-2 -13 6 -8 7 5 8 3 3 -5 -10 -18 -55 26 -48 48 4 13 3 13 -5 2 -9 -12 -13
-12 -26 -2 -14 12 -14 17 6 52 13 23 27 38 35 35 7 -3 13 -1 13 4 0 6 -5 10
-11 10 -7 0 -5 9 4 23 9 12 25 40 37 62 11 22 29 51 41 65 l20 25 -6 -25 c-5
-21 -4 -22 5 -8 6 9 17 15 25 12 8 -4 12 -10 9 -15 -3 -5 2 -6 10 -3 8 3 23 1
33 -4 10 -5 43 -13 73 -16 30 -4 67 -15 82 -26 15 -11 31 -20 35 -20 4 0 14
-4 22 -9 12 -8 12 -12 2 -24 -8 -11 -9 -17 -1 -22 6 -4 9 -1 8 6 -4 17 41 18
58 2 8 -8 14 -12 14 -9 0 3 31 -6 69 -19 38 -14 76 -25 85 -25 9 0 29 -8 43
-17 15 -10 24 -12 20 -5 -5 7 -3 12 7 12 9 0 16 -4 16 -8 0 -4 12 -8 28 -7 17
0 26 -5 24 -13 -1 -8 2 -11 8 -7 6 3 8 10 6 13 -2 4 28 6 67 4 94 -5 237 19
310 52 31 14 58 25 60 23 1 -1 18 13 37 30 19 18 40 33 47 33 6 0 15 5 19 12
4 6 3 8 -4 4 -6 -3 4 21 21 55 27 53 32 73 32 133 -1 53 -7 83 -24 119 -13 26
-21 54 -18 62 4 9 1 12 -7 9 -8 -3 -24 7 -36 23 -12 15 -25 28 -28 28 -4 0 -6
3 -4 8 1 4 -4 6 -10 5 -7 -2 -12 2 -11 7 1 6 -6 11 -15 12 -22 1 -166 65 -189
84 -11 9 -14 10 -9 2 4 -7 5 -13 3 -13 -13 0 -67 23 -67 28 0 11 20 38 20 28
0 -5 10 4 22 20 34 45 40 51 32 29 -7 -17 -6 -18 8 -5 8 8 14 20 11 25 -2 6
11 24 28 40 18 17 29 25 26 19 -3 -6 0 -11 7 -11 8 0 12 6 9 13 -3 7 11 29 30
49 33 34 56 47 41 23 -4 -7 -3 -8 4 -4 6 4 8 14 5 22 -4 11 0 15 12 12 10 -2
20 4 22 12 4 13 3 13 -6 0 -6 -8 -11 -11 -11 -6 0 7 37 51 47 55 2 1 45 -19
95 -44z m-652 -470 c-7 -9 -15 -13 -17 -11 -7 7 7 26 19 26 6 0 6 -6 -2 -15z"/>
<path d="M3675 1600 c-3 -5 1 -10 10 -10 9 0 13 5 10 10 -3 6 -8 10 -10 10 -2
0 -7 -4 -10 -10z"/>
<path d="M3749 1573 c-9 -10 -46 -47 -82 -82 -64 -60 -79 -81 -57 -81 6 0 10
4 10 8 0 5 34 43 75 85 66 66 83 87 72 87 -1 0 -10 -8 -18 -17z"/>
<path d="M3656 1551 c-4 -5 -2 -12 3 -15 5 -4 12 -2 15 3 4 5 2 12 -3 15 -5 4
-12 2 -15 -3z"/>
<path d="M3745 1440 c-54 -55 -95 -104 -91 -108 4 -4 12 1 17 11 15 25 171
183 189 190 13 5 13 6 -1 6 -8 1 -59 -44 -114 -99z"/>
<path d="M3885 1510 c3 -5 8 -10 11 -10 2 0 4 5 4 10 0 6 -5 10 -11 10 -5 0
-7 -4 -4 -10z"/>
<path d="M3575 1500 c3 -5 8 -10 11 -10 2 0 4 5 4 10 0 6 -5 10 -11 10 -5 0
-7 -4 -4 -10z"/>
<path d="M3970 1450 c-9 -6 -10 -10 -3 -10 6 0 15 5 18 10 8 12 4 12 -15 0z"/>
<path d="M3496 1425 c-11 -8 -15 -15 -9 -15 6 0 16 7 23 15 16 19 11 19 -14 0z"/>
<path d="M3570 1403 c0 -5 -21 -30 -47 -58 l-46 -49 -18 23 c-11 13 -19 18
-19 12 0 -6 -5 -11 -10 -11 -7 0 -7 7 0 23 11 21 10 21 -4 3 -16 -20 -12 -40
7 -33 7 2 19 -2 27 -9 18 -16 60 -8 60 11 0 8 11 22 25 33 14 11 25 25 25 31
0 6 7 11 16 11 8 0 12 5 9 10 -7 12 -25 13 -25 3z"/>
<path d="M3620 1312 c0 -4 -12 -15 -27 -24 -16 -10 -23 -18 -16 -18 7 0 25 11
40 25 15 13 22 25 16 25 -7 0 -13 -3 -13 -8z"/>
<path d="M3560 1256 c0 -2 9 -6 20 -9 11 -3 18 -1 14 4 -5 9 -34 13 -34 5z"/>
<path d="M3739 1183 c-13 -16 -12 -17 4 -4 16 13 21 21 13 21 -2 0 -10 -8 -17
-17z"/>
<path d="M4165 821 c-3 -5 -1 -12 5 -16 5 -3 10 1 10 9 0 18 -6 21 -15 7z"/>
<path d="M2491 753 c3 -11 -23 -63 -31 -63 -4 0 -7 -6 -7 -14 0 -8 6 -12 14
-9 7 3 11 8 8 12 -2 4 5 22 15 39 12 19 15 34 9 37 -5 4 -9 3 -8 -2z"/>
<path d="M2956 618 c3 -4 11 -8 19 -8 8 0 16 4 19 8 2 4 -6 8 -19 8 -13 0 -21
-4 -19 -8z"/>
<path d="M3560 610 c8 -5 20 -10 25 -10 6 0 3 5 -5 10 -8 5 -19 10 -25 10 -5
0 -3 -5 5 -10z"/>
<path d="M3510 596 c0 -2 7 -6 15 -10 8 -3 15 -1 15 4 0 6 -7 10 -15 10 -8 0
-15 -2 -15 -4z"/>
<path d="M3960 486 c0 -2 7 -7 16 -10 8 -3 12 -2 9 4 -6 10 -25 14 -25 6z"/>
<path d="M2546 462 c-3 -5 1 -9 9 -9 8 0 12 4 9 9 -3 4 -7 8 -9 8 -2 0 -6 -4
-9 -8z"/>
<path d="M2633 405 c0 -8 3 -13 5 -10 3 3 11 0 18 -6 9 -7 14 -6 20 3 4 7 3
10 -1 5 -5 -4 -16 0 -25 8 -15 13 -17 13 -17 0z"/>
<path d="M2863 315 c0 -8 4 -12 9 -9 5 3 6 10 3 15 -9 13 -12 11 -12 -6z"/>
<path d="M3715 320 c-13 -6 -15 -9 -5 -9 8 0 22 4 30 9 18 12 2 12 -25 0z"/>
<path d="M2900 306 c0 -2 15 -6 34 -8 19 -2 32 0 30 4 -5 8 -64 12 -64 4z"/>
<path d="M3610 299 c0 -5 5 -7 10 -4 6 3 10 8 10 11 0 2 -4 4 -10 4 -5 0 -10
-5 -10 -11z"/>
<path d="M4256 2352 c-3 -5 1 -9 9 -9 8 0 12 4 9 9 -3 4 -7 8 -9 8 -2 0 -6 -4
-9 -8z"/>
<path d="M3976 2338 c3 -5 10 -6 15 -3 13 9 11 12 -6 12 -8 0 -12 -4 -9 -9z"/>
<path d="M3020 2259 c0 -5 5 -7 10 -4 6 3 10 8 10 11 0 2 -4 4 -10 4 -5 0 -10
-5 -10 -11z"/>
<path d="M3710 2260 c-9 -6 -10 -10 -3 -10 6 0 15 5 18 10 8 12 4 12 -15 0z"/>
<path d="M3770 2231 c0 -6 4 -13 10 -16 6 -3 7 1 4 9 -7 18 -14 21 -14 7z"/>
<path d="M3885 2090 c-3 -5 -1 -10 4 -10 6 0 11 5 11 10 0 6 -2 10 -4 10 -3 0
-8 -4 -11 -10z"/>
<path d="M3907 2081 c-4 -17 -3 -21 5 -13 5 5 8 16 6 23 -3 8 -7 3 -11 -10z"/>
<path d="M4035 2079 c-4 -6 -5 -12 -2 -15 2 -3 7 2 10 11 7 17 1 20 -8 4z"/>
<path d="M3856 2055 c-11 -8 -17 -17 -14 -20 2 -3 13 4 23 15 21 23 18 25 -9
5z"/>
<path d="M4115 2030 c-16 -17 -16 -20 -3 -15 9 4 19 13 22 21 7 19 2 18 -19
-6z"/>
<path d="M3700 1995 c-7 -9 -8 -15 -2 -15 5 0 12 7 16 15 3 8 4 15 2 15 -2 0
-9 -7 -16 -15z"/>
<path d="M3797 2003 c-4 -3 -7 -11 -7 -17 0 -6 5 -5 12 2 6 6 9 14 7 17 -3 3
-9 2 -12 -2z"/>
<path d="M3953 1991 c0 -11 5 -18 9 -15 4 3 5 11 1 19 -7 21 -12 19 -10 -4z"/>
<path d="M2945 1960 c-3 -5 -1 -10 4 -10 6 0 11 5 11 10 0 6 -2 10 -4 10 -3 0
-8 -4 -11 -10z"/>
<path d="M3722 1928 c-7 -7 -12 -16 -12 -21 0 -5 7 -1 16 8 9 9 14 18 12 20
-2 3 -10 -1 -16 -7z"/>
<path d="M3850 1906 c7 -7 13 -7 20 0 6 6 3 10 -10 10 -13 0 -16 -4 -10 -10z"/>
<path d="M3676 1881 c-10 -10 -14 -21 -9 -24 5 -3 13 6 20 19 13 29 11 30 -11
5z"/>
<path d="M3775 1800 c-3 -5 -1 -10 4 -10 6 0 11 5 11 10 0 6 -2 10 -4 10 -3 0
-8 -4 -11 -10z"/>
<path d="M3646 1792 c-2 -4 4 -8 14 -8 10 0 16 4 14 8 -3 4 -9 8 -14 8 -5 0
-11 -4 -14 -8z"/>
<path d="M3471 1666 c-9 -11 -8 -15 5 -20 9 -4 19 -4 22 -1 3 3 0 5 -6 5 -7 0
-12 5 -12 11 0 6 7 9 15 5 8 -3 15 -1 15 4 0 15 -26 12 -39 -4z"/>
<path d="M3290 1659 c0 -5 5 -7 10 -4 6 3 10 8 10 11 0 2 -4 4 -10 4 -5 0 -10
-5 -10 -11z"/>
<path d="M3642 1653 c-7 -2 -17 -14 -23 -26 -9 -19 -8 -20 3 -7 8 8 20 21 28
28 15 13 13 14 -8 5z"/>
<path d="M3526 1594 c-3 -8 0 -11 8 -8 7 3 16 -2 19 -10 4 -9 1 -16 -5 -16 -6
0 -9 -3 -5 -6 3 -3 14 -1 24 5 11 6 13 11 5 11 -7 0 -10 5 -7 10 3 6 1 10 -5
10 -6 0 -9 4 -6 8 3 5 -1 9 -9 9 -8 0 -16 -6 -19 -13z"/>
<path d="M3388 1586 c-19 -14 -23 -26 -10 -26 4 0 13 9 20 20 14 23 13 24 -10
6z"/>
<path d="M3210 1570 c0 -5 5 -10 11 -10 5 0 7 5 4 10 -3 6 -8 10 -11 10 -2 0
-4 -4 -4 -10z"/>
<path d="M2600 1560 c0 -5 5 -10 11 -10 5 0 7 5 4 10 -3 6 -8 10 -11 10 -2 0
-4 -4 -4 -10z"/>
<path d="M3425 1551 c-3 -5 -2 -12 3 -15 5 -3 9 1 9 9 0 17 -3 19 -12 6z"/>
<path d="M3345 1539 c-11 -17 1 -21 15 -4 8 9 8 15 2 15 -6 0 -14 -5 -17 -11z"/>
<path d="M3451 1517 c2 -1 13 -9 24 -17 19 -14 19 -14 6 3 -7 9 -18 17 -24 17
-6 0 -8 -1 -6 -3z"/>
<path d="M3300 1495 c-8 -9 -8 -15 -2 -15 12 0 26 19 19 26 -2 2 -10 -2 -17
-11z"/>
<path d="M2035 1490 c3 -5 11 -10 16 -10 6 0 7 5 4 10 -3 6 -11 10 -16 10 -6
0 -7 -4 -4 -10z"/>
<path d="M3130 1454 c0 -8 5 -12 10 -9 6 4 8 11 5 16 -9 14 -15 11 -15 -7z"/>
<path d="M3270 1459 c0 -5 5 -7 10 -4 6 3 10 8 10 11 0 2 -4 4 -10 4 -5 0 -10
-5 -10 -11z"/>
<path d="M4076 1447 c3 -10 9 -15 12 -12 3 3 0 11 -7 18 -10 9 -11 8 -5 -6z"/>
<path d="M3380 1440 c-9 -6 -10 -10 -3 -10 6 0 15 5 18 10 8 12 4 12 -15 0z"/>
<path d="M3430 1435 c-7 -8 -17 -12 -24 -8 -6 3 -8 3 -4 -2 4 -4 3 -14 -3 -22
-6 -7 -8 -13 -3 -12 9 0 59 59 51 59 -3 0 -10 -7 -17 -15z"/>
<path d="M2238 1423 c6 -2 18 -2 25 0 6 3 1 5 -13 5 -14 0 -19 -2 -12 -5z"/>
<path d="M2870 1409 c0 -5 5 -7 10 -4 6 3 10 8 10 11 0 2 -4 4 -10 4 -5 0 -10
-5 -10 -11z"/>
<path d="M3234 1400 c0 -13 4 -16 10 -10 7 7 7 13 0 20 -6 6 -10 3 -10 -10z"/>
<path d="M2298 1403 c7 -3 16 -2 19 1 4 3 -2 6 -13 5 -11 0 -14 -3 -6 -6z"/>
<path d="M3201 1387 c-13 -21 -12 -21 5 -5 10 10 16 20 13 22 -3 3 -11 -5 -18
-17z"/>
<path d="M3182 1340 c0 -14 2 -19 5 -12 2 6 2 18 0 25 -3 6 -5 1 -5 -13z"/>
<path d="M3335 1351 c3 -5 0 -11 -7 -13 -7 -3 -8 -7 -3 -10 6 -3 15 0 22 7 10
10 9 14 -3 19 -8 3 -13 2 -9 -3z"/>
<path d="M1890 1306 c0 -2 8 -10 18 -17 15 -13 16 -12 3 4 -13 16 -21 21 -21
13z"/>
<path d="M4215 1281 c-3 -5 -2 -12 3 -15 5 -3 9 1 9 9 0 17 -3 19 -12 6z"/>
<path d="M3230 1260 c-8 -5 -10 -10 -5 -10 6 0 17 5 25 10 8 5 11 10 5 10 -5
0 -17 -5 -25 -10z"/>
<path d="M2491 1231 c-8 -6 -9 -11 -3 -15 6 -3 14 -1 17 5 9 14 2 20 -14 10z"/>
<path d="M1939 1203 c-12 -16 -12 -17 2 -6 9 7 19 10 22 6 4 -3 7 -1 7 5 0 17
-16 15 -31 -5z"/>
<path d="M3176 1193 c-6 -14 -5 -15 5 -6 7 7 10 15 7 18 -3 3 -9 -2 -12 -12z"/>
<path d="M2384 1186 c1 -8 5 -18 8 -22 4 -3 5 1 4 10 -1 8 -5 18 -8 22 -4 3
-5 -1 -4 -10z"/>
<path d="M2987 1175 c-10 -14 -16 -25 -13 -25 2 0 13 -3 23 -6 15 -5 15 -4 3
5 -12 8 -12 13 -2 23 10 10 15 10 22 -2 11 -17 13 -9 4 14 -8 22 -16 20 -37
-9z"/>
<path d="M1785 1180 c3 -5 8 -10 11 -10 2 0 4 5 4 10 0 6 -5 10 -11 10 -5 0
-7 -4 -4 -10z"/>
<path d="M2850 1180 c0 -5 5 -10 11 -10 5 0 7 5 4 10 -3 6 -8 10 -11 10 -2 0
-4 -4 -4 -10z"/>
<path d="M1736 1127 c3 -10 9 -15 12 -12 3 3 0 11 -7 18 -10 9 -11 8 -5 -6z"/>
<path d="M2922 1110 c-18 -17 -29 -30 -25 -30 9 0 63 48 63 55 0 8 -4 6 -38
-25z"/>
<path d="M1865 1104 c-9 -15 -12 -23 -6 -20 11 7 35 46 28 46 -3 0 -12 -12
-22 -26z"/>
<path d="M3040 1125 c0 -2 6 -8 13 -14 10 -8 14 -7 14 2 0 8 -6 14 -14 14 -7
0 -13 -1 -13 -2z"/>
<path d="M2635 1071 c-3 -5 -2 -12 3 -15 5 -3 9 1 9 9 0 17 -3 19 -12 6z"/>
<path d="M3705 1071 c-3 -5 -2 -12 3 -15 5 -3 9 1 9 9 0 17 -3 19 -12 6z"/>
<path d="M2810 1060 c-18 -12 -2 -12 25 0 13 6 15 9 5 9 -8 0 -22 -4 -30 -9z"/>
<path d="M1635 1039 c-4 -6 -5 -12 -2 -15 2 -3 7 2 10 11 7 17 1 20 -8 4z"/>
<path d="M2520 1043 c0 -12 38 -48 44 -42 3 2 -6 15 -20 28 -13 13 -24 19 -24
14z"/>
<path d="M1660 1031 c0 -6 4 -13 10 -16 6 -3 7 1 4 9 -7 18 -14 21 -14 7z"/>
<path d="M1764 1008 c0 -10 1 -18 3 -18 1 0 7 8 12 18 7 13 6 19 -2 19 -7 0
-13 -9 -13 -19z"/>
<path d="M1540 916 c0 -2 7 -7 16 -10 8 -3 12 -2 9 4 -6 10 -25 14 -25 6z"/>
<path d="M1259 833 c-13 -16 -12 -17 4 -4 9 7 17 15 17 17 0 8 -8 3 -21 -13z"/>
<path d="M1606 842 c-3 -5 1 -9 9 -9 8 0 15 4 15 9 0 4 -4 8 -9 8 -6 0 -12 -4
-15 -8z"/>
<path d="M1425 820 c4 -6 11 -8 16 -5 14 9 11 15 -7 15 -8 0 -12 -5 -9 -10z"/>
<path d="M2758 803 c7 -3 16 -2 19 1 4 3 -2 6 -13 5 -11 0 -14 -3 -6 -6z"/>
<path d="M2810 790 c-9 -6 -10 -10 -3 -10 6 0 15 5 18 10 8 12 4 12 -15 0z"/>
<path d="M1426 763 c-6 -14 -5 -15 5 -6 7 7 10 15 7 18 -3 3 -9 -2 -12 -12z"/>
<path d="M3525 699 c-11 -16 -1 -19 13 -3 7 8 8 14 3 14 -5 0 -13 -5 -16 -11z"/>
<path d="M1611 624 c0 -11 3 -14 6 -6 3 7 2 16 -1 19 -3 4 -6 -2 -5 -13z"/>
<path d="M1336 557 c3 -10 9 -15 12 -12 3 3 0 11 -7 18 -10 9 -11 8 -5 -6z"/>
<path d="M1286 543 c-6 -14 -5 -15 5 -6 7 7 10 15 7 18 -3 3 -9 -2 -12 -12z"/>
<path d="M1295 519 c-11 -16 -1 -19 13 -3 7 8 8 14 3 14 -5 0 -13 -5 -16 -11z"/>
<path d="M1270 506 c0 -8 4 -17 9 -20 5 -4 7 3 4 14 -6 23 -13 26 -13 6z"/>
<path d="M2415 451 c-3 -5 -2 -12 3 -15 5 -3 9 1 9 9 0 17 -3 19 -12 6z"/>
<path d="M2449 423 c-13 -16 -12 -17 4 -4 16 13 21 21 13 21 -2 0 -10 -8 -17
-17z"/>
<path d="M3963 365 c0 -8 4 -12 9 -9 5 3 6 10 3 15 -9 13 -12 11 -12 -6z"/>
<path d="M1238 332 c-5 -16 -2 -19 11 -14 14 5 14 4 2 -11 -8 -11 -9 -17 -3
-17 6 0 16 10 23 21 7 13 7 19 1 15 -6 -4 -15 1 -20 10 -8 14 -10 14 -14 -4z"/>
<path d="M2680 270 c0 -5 5 -10 11 -10 5 0 7 5 4 10 -3 6 -8 10 -11 10 -2 0
-4 -4 -4 -10z"/>
<path d="M3791 277 c2 -1 13 -9 24 -17 19 -14 19 -14 6 3 -7 9 -18 17 -24 17
-6 0 -8 -1 -6 -3z"/>
</g>
</svg>
